<svg width="168" height="80" viewBox="0 0 168 80" fill="none" xmlns="http://www.w3.org/2000/svg">
<path d="M6.69531 70.9609L8.07812 71.1406C7.92708 72.0938 7.53906 72.8411 6.91406 73.3828C6.29427 73.9193 5.53125 74.1875 4.625 74.1875C3.48958 74.1875 2.57552 73.8177 1.88281 73.0781C1.19531 72.3333 0.851562 71.2682 0.851562 69.8828C0.851562 68.987 1 68.2031 1.29688 67.5312C1.59375 66.8594 2.04427 66.3568 2.64844 66.0234C3.25781 65.6849 3.91927 65.5156 4.63281 65.5156C5.53385 65.5156 6.27083 65.7448 6.84375 66.2031C7.41667 66.6562 7.78385 67.3021 7.94531 68.1406L6.57812 68.3516C6.44792 67.7943 6.21615 67.375 5.88281 67.0938C5.55469 66.8125 5.15625 66.6719 4.6875 66.6719C3.97917 66.6719 3.40365 66.9271 2.96094 67.4375C2.51823 67.9427 2.29688 68.7448 2.29688 69.8438C2.29688 70.9583 2.51042 71.7682 2.9375 72.2734C3.36458 72.7786 3.92188 73.0312 4.60938 73.0312C5.16146 73.0312 5.6224 72.862 5.99219 72.5234C6.36198 72.1849 6.59635 71.6641 6.69531 70.9609ZM8.75781 69.8516C8.75781 68.3151 9.1849 67.1771 10.0391 66.4375C10.7526 65.8229 11.6224 65.5156 12.6484 65.5156C13.7891 65.5156 14.7214 65.8906 15.4453 66.6406C16.1693 67.3854 16.5312 68.4167 16.5312 69.7344C16.5312 70.8021 16.3698 71.6432 16.0469 72.2578C15.7292 72.8672 15.263 73.3411 14.6484 73.6797C14.0391 74.0182 13.3724 74.1875 12.6484 74.1875C11.487 74.1875 10.5469 73.8151 9.82812 73.0703C9.11458 72.3255 8.75781 71.2526 8.75781 69.8516ZM10.2031 69.8516C10.2031 70.9141 10.4349 71.7109 10.8984 72.2422C11.362 72.7682 11.9453 73.0312 12.6484 73.0312C13.3464 73.0312 13.9271 72.7656 14.3906 72.2344C14.8542 71.7031 15.0859 70.8932 15.0859 69.8047C15.0859 68.7786 14.8516 68.0026 14.3828 67.4766C13.9193 66.9453 13.3411 66.6797 12.6484 66.6797C11.9453 66.6797 11.362 66.9427 10.8984 67.4688C10.4349 67.9948 10.2031 68.7891 10.2031 69.8516ZM18.1875 74V65.7031H19.4531V66.8828C20.0625 65.9714 20.9427 65.5156 22.0938 65.5156C22.5938 65.5156 23.0521 65.6068 23.4688 65.7891C23.8906 65.9661 24.2057 66.2005 24.4141 66.4922C24.6224 66.7839 24.7682 67.1302 24.8516 67.5312C24.9036 67.7917 24.9297 68.2474 24.9297 68.8984V74H23.5234V68.9531C23.5234 68.3802 23.4688 67.9531 23.3594 67.6719C23.25 67.3854 23.0547 67.1589 22.7734 66.9922C22.4974 66.8203 22.1719 66.7344 21.7969 66.7344C21.1979 66.7344 20.6797 66.9245 20.2422 67.3047C19.8099 67.6849 19.5938 68.4062 19.5938 69.4688V74H18.1875ZM30.1641 72.7422L30.3672 73.9844C29.9714 74.0677 29.6172 74.1094 29.3047 74.1094C28.7943 74.1094 28.3984 74.0286 28.1172 73.8672C27.8359 73.7057 27.638 73.4948 27.5234 73.2344C27.4089 72.9688 27.3516 72.4141 27.3516 71.5703V66.7969H26.3203V65.7031H27.3516V63.6484L28.75 62.8047V65.7031H30.1641V66.7969H28.75V71.6484C28.75 72.0495 28.7734 72.3073 28.8203 72.4219C28.8724 72.5365 28.9531 72.6276 29.0625 72.6953C29.1771 72.763 29.3385 72.7969 29.5469 72.7969C29.7031 72.7969 29.9089 72.7786 30.1641 72.7422ZM36.9609 72.9766C36.4401 73.4193 35.9375 73.7318 35.4531 73.9141C34.974 74.0964 34.4583 74.1875 33.9062 74.1875C32.9948 74.1875 32.2943 73.9661 31.8047 73.5234C31.3151 73.0755 31.0703 72.5052 31.0703 71.8125C31.0703 71.4062 31.1615 71.0365 31.3438 70.7031C31.5312 70.3646 31.7734 70.0938 32.0703 69.8906C32.3724 69.6875 32.7109 69.5339 33.0859 69.4297C33.362 69.3568 33.7786 69.2865 34.3359 69.2188C35.4714 69.0833 36.3073 68.9219 36.8438 68.7344C36.849 68.5417 36.8516 68.4193 36.8516 68.3672C36.8516 67.7943 36.7188 67.3906 36.4531 67.1562C36.0938 66.8385 35.5599 66.6797 34.8516 66.6797C34.1901 66.6797 33.7005 66.7969 33.3828 67.0312C33.0703 67.2604 32.8385 67.6693 32.6875 68.2578L31.3125 68.0703C31.4375 67.4818 31.6432 67.0078 31.9297 66.6484C32.2161 66.2839 32.6302 66.0052 33.1719 65.8125C33.7135 65.6146 34.3411 65.5156 35.0547 65.5156C35.763 65.5156 36.3385 65.599 36.7812 65.7656C37.224 65.9323 37.5495 66.1432 37.7578 66.3984C37.9661 66.6484 38.112 66.9661 38.1953 67.3516C38.2422 67.5911 38.2656 68.0234 38.2656 68.6484V70.5234C38.2656 71.8307 38.2943 72.6589 38.3516 73.0078C38.4141 73.3516 38.5339 73.6823 38.7109 74H37.2422C37.0964 73.7083 37.0026 73.3672 36.9609 72.9766ZM36.8438 69.8359C36.3333 70.0443 35.5677 70.2214 34.5469 70.3672C33.9688 70.4505 33.5599 70.5443 33.3203 70.6484C33.0807 70.7526 32.8958 70.9062 32.7656 71.1094C32.6354 71.3073 32.5703 71.5286 32.5703 71.7734C32.5703 72.1484 32.7109 72.4609 32.9922 72.7109C33.2786 72.9609 33.6953 73.0859 34.2422 73.0859C34.7839 73.0859 35.2656 72.9688 35.6875 72.7344C36.1094 72.4948 36.4193 72.1693 36.6172 71.7578C36.7682 71.4401 36.8438 70.9714 36.8438 70.3516V69.8359ZM45.8672 70.9609L47.25 71.1406C47.099 72.0938 46.7109 72.8411 46.0859 73.3828C45.4661 73.9193 44.7031 74.1875 43.7969 74.1875C42.6615 74.1875 41.7474 73.8177 41.0547 73.0781C40.3672 72.3333 40.0234 71.2682 40.0234 69.8828C40.0234 68.987 40.1719 68.2031 40.4688 67.5312C40.7656 66.8594 41.2161 66.3568 41.8203 66.0234C42.4297 65.6849 43.0911 65.5156 43.8047 65.5156C44.7057 65.5156 45.4427 65.7448 46.0156 66.2031C46.5885 66.6562 46.9557 67.3021 47.1172 68.1406L45.75 68.3516C45.6198 67.7943 45.388 67.375 45.0547 67.0938C44.7266 66.8125 44.3281 66.6719 43.8594 66.6719C43.151 66.6719 42.5755 66.9271 42.1328 67.4375C41.6901 67.9427 41.4688 68.7448 41.4688 69.8438C41.4688 70.9583 41.6823 71.7682 42.1094 72.2734C42.5365 72.7786 43.0938 73.0312 43.7812 73.0312C44.3333 73.0312 44.7943 72.862 45.1641 72.5234C45.5339 72.1849 45.7682 71.6641 45.8672 70.9609ZM51.5234 72.7422L51.7266 73.9844C51.3307 74.0677 50.9766 74.1094 50.6641 74.1094C50.1536 74.1094 49.7578 74.0286 49.4766 73.8672C49.1953 73.7057 48.9974 73.4948 48.8828 73.2344C48.7682 72.9688 48.7109 72.4141 48.7109 71.5703V66.7969H47.6797V65.7031H48.7109V63.6484L50.1094 62.8047V65.7031H51.5234V66.7969H50.1094V71.6484C50.1094 72.0495 50.1328 72.3073 50.1797 72.4219C50.2318 72.5365 50.3125 72.6276 50.4219 72.6953C50.5365 72.763 50.6979 72.7969 50.9062 72.7969C51.0625 72.7969 51.2682 72.7786 51.5234 72.7422ZM60.9219 72.7266C60.5833 73.1172 60.2031 73.4323 59.7812 73.6719C59.3646 73.9062 58.9453 74.0234 58.5234 74.0234C58.0599 74.0234 57.6094 73.888 57.1719 73.6172C56.7344 73.3464 56.3776 72.9297 56.1016 72.3672C55.8307 71.8047 55.6953 71.1875 55.6953 70.5156C55.6953 69.6875 55.9062 68.8594 56.3281 68.0312C56.7552 67.1979 57.2839 66.5729 57.9141 66.1562C58.5443 65.7396 59.1562 65.5312 59.75 65.5312C60.2031 65.5312 60.6354 65.651 61.0469 65.8906C61.4583 66.125 61.8125 66.4844 62.1094 66.9688L62.375 65.7578H63.7734L62.6484 71C62.4922 71.7292 62.4141 72.1328 62.4141 72.2109C62.4141 72.3516 62.4661 72.474 62.5703 72.5781C62.6797 72.6771 62.8099 72.7266 62.9609 72.7266C63.237 72.7266 63.599 72.5677 64.0469 72.25C64.6406 71.8333 65.1094 71.276 65.4531 70.5781C65.8021 69.875 65.9766 69.151 65.9766 68.4062C65.9766 67.5365 65.7526 66.724 65.3047 65.9688C64.862 65.2135 64.1979 64.6094 63.3125 64.1562C62.4323 63.7031 61.4583 63.4766 60.3906 63.4766C59.1719 63.4766 58.0573 63.763 57.0469 64.3359C56.0417 64.9036 55.2604 65.7214 54.7031 66.7891C54.151 67.8516 53.875 68.9922 53.875 70.2109C53.875 71.487 54.151 72.5859 54.7031 73.5078C55.2604 74.4297 56.0625 75.1094 57.1094 75.5469C58.1615 75.9896 59.3255 76.2109 60.6016 76.2109C61.9661 76.2109 63.1094 75.9818 64.0312 75.5234C64.9531 75.0651 65.6432 74.5078 66.1016 73.8516H67.5156C67.25 74.3984 66.7943 74.9557 66.1484 75.5234C65.5026 76.0911 64.7344 76.5391 63.8438 76.8672C62.9531 77.2005 61.8802 77.3672 60.625 77.3672C59.4688 77.3672 58.401 77.2188 57.4219 76.9219C56.4479 76.625 55.6172 76.1771 54.9297 75.5781C54.2422 74.9844 53.724 74.2995 53.375 73.5234C52.9375 72.5391 52.7188 71.4766 52.7188 70.3359C52.7188 69.0651 52.9792 67.8542 53.5 66.7031C54.1354 65.2917 55.0365 64.2109 56.2031 63.4609C57.375 62.7109 58.7943 62.3359 60.4609 62.3359C61.7526 62.3359 62.9115 62.6016 63.9375 63.1328C64.9688 63.6589 65.7812 64.4453 66.375 65.4922C66.8802 66.3932 67.1328 67.3724 67.1328 68.4297C67.1328 69.9401 66.6016 71.2812 65.5391 72.4531C64.5911 73.5052 63.5547 74.0312 62.4297 74.0312C62.0703 74.0312 61.7786 73.9766 61.5547 73.8672C61.3359 73.7578 61.1745 73.6016 61.0703 73.3984C61.0026 73.2682 60.9531 73.0443 60.9219 72.7266ZM57.1406 70.6094C57.1406 71.3229 57.3099 71.8776 57.6484 72.2734C57.987 72.6693 58.375 72.8672 58.8125 72.8672C59.1042 72.8672 59.4115 72.7812 59.7344 72.6094C60.0573 72.4323 60.3646 72.1719 60.6562 71.8281C60.9531 71.4844 61.1953 71.0495 61.3828 70.5234C61.5703 69.9922 61.6641 69.4609 61.6641 68.9297C61.6641 68.2214 61.487 67.6719 61.1328 67.2812C60.7839 66.8906 60.3568 66.6953 59.8516 66.6953C59.5182 66.6953 59.2031 66.7812 58.9062 66.9531C58.6146 67.1198 58.3307 67.3906 58.0547 67.7656C57.7786 68.1406 57.5573 68.5964 57.3906 69.1328C57.224 69.6693 57.1406 70.1615 57.1406 70.6094ZM69.0938 77.1953L68.9375 75.875C69.2448 75.9583 69.513 76 69.7422 76C70.0547 76 70.3047 75.9479 70.4922 75.8438C70.6797 75.7396 70.8333 75.5938 70.9531 75.4062C71.0417 75.2656 71.1849 74.9167 71.3828 74.3594C71.4089 74.2812 71.4505 74.1667 71.5078 74.0156L68.3594 65.7031H69.875L71.6016 70.5078C71.8255 71.1172 72.026 71.7578 72.2031 72.4297C72.3646 71.7839 72.5573 71.1536 72.7812 70.5391L74.5547 65.7031H75.9609L72.8047 74.1406C72.4661 75.0521 72.2031 75.6797 72.0156 76.0234C71.7656 76.487 71.4792 76.8255 71.1562 77.0391C70.8333 77.2578 70.4479 77.3672 70 77.3672C69.7292 77.3672 69.4271 77.3099 69.0938 77.1953ZM77.1641 74V62.5469H78.5703V69.0781L81.8984 65.7031H83.7188L80.5469 68.7812L84.0391 74H82.3047L79.5625 69.7578L78.5703 70.7109V74H77.1641ZM88.2266 72.7422L88.4297 73.9844C88.0339 74.0677 87.6797 74.1094 87.3672 74.1094C86.8568 74.1094 86.4609 74.0286 86.1797 73.8672C85.8984 73.7057 85.7005 73.4948 85.5859 73.2344C85.4714 72.9688 85.4141 72.4141 85.4141 71.5703V66.7969H84.3828V65.7031H85.4141V63.6484L86.8125 62.8047V65.7031H88.2266V66.7969H86.8125V71.6484C86.8125 72.0495 86.8359 72.3073 86.8828 72.4219C86.9349 72.5365 87.0156 72.6276 87.125 72.6953C87.2396 72.763 87.401 72.7969 87.6094 72.7969C87.7656 72.7969 87.9714 72.7786 88.2266 72.7422ZM95.0234 72.9766C94.5026 73.4193 94 73.7318 93.5156 73.9141C93.0365 74.0964 92.5208 74.1875 91.9688 74.1875C91.0573 74.1875 90.3568 73.9661 89.8672 73.5234C89.3776 73.0755 89.1328 72.5052 89.1328 71.8125C89.1328 71.4062 89.224 71.0365 89.4062 70.7031C89.5938 70.3646 89.8359 70.0938 90.1328 69.8906C90.4349 69.6875 90.7734 69.5339 91.1484 69.4297C91.4245 69.3568 91.8411 69.2865 92.3984 69.2188C93.5339 69.0833 94.3698 68.9219 94.9062 68.7344C94.9115 68.5417 94.9141 68.4193 94.9141 68.3672C94.9141 67.7943 94.7812 67.3906 94.5156 67.1562C94.1562 66.8385 93.6224 66.6797 92.9141 66.6797C92.2526 66.6797 91.763 66.7969 91.4453 67.0312C91.1328 67.2604 90.901 67.6693 90.75 68.2578L89.375 68.0703C89.5 67.4818 89.7057 67.0078 89.9922 66.6484C90.2786 66.2839 90.6927 66.0052 91.2344 65.8125C91.776 65.6146 92.4036 65.5156 93.1172 65.5156C93.8255 65.5156 94.401 65.599 94.8438 65.7656C95.2865 65.9323 95.612 66.1432 95.8203 66.3984C96.0286 66.6484 96.1745 66.9661 96.2578 67.3516C96.3047 67.5911 96.3281 68.0234 96.3281 68.6484V70.5234C96.3281 71.8307 96.3568 72.6589 96.4141 73.0078C96.4766 73.3516 96.5964 73.6823 96.7734 74H95.3047C95.1589 73.7083 95.0651 73.3672 95.0234 72.9766ZM94.9062 69.8359C94.3958 70.0443 93.6302 70.2214 92.6094 70.3672C92.0312 70.4505 91.6224 70.5443 91.3828 70.6484C91.1432 70.7526 90.9583 70.9062 90.8281 71.1094C90.6979 71.3073 90.6328 71.5286 90.6328 71.7734C90.6328 72.1484 90.7734 72.4609 91.0547 72.7109C91.3411 72.9609 91.7578 73.0859 92.3047 73.0859C92.8464 73.0859 93.3281 72.9688 93.75 72.7344C94.1719 72.4948 94.4818 72.1693 94.6797 71.7578C94.8307 71.4401 94.9062 70.9714 94.9062 70.3516V69.8359ZM104.195 71.3281L105.648 71.5078C105.419 72.3568 104.995 73.0156 104.375 73.4844C103.755 73.9531 102.964 74.1875 102 74.1875C100.786 74.1875 99.8229 73.8151 99.1094 73.0703C98.401 72.3203 98.0469 71.2708 98.0469 69.9219C98.0469 68.526 98.4062 67.4427 99.125 66.6719C99.8438 65.901 100.776 65.5156 101.922 65.5156C103.031 65.5156 103.938 65.8932 104.641 66.6484C105.344 67.4036 105.695 68.4661 105.695 69.8359C105.695 69.9193 105.693 70.0443 105.688 70.2109H99.5C99.5521 71.1224 99.8099 71.8203 100.273 72.3047C100.737 72.7891 101.315 73.0312 102.008 73.0312C102.523 73.0312 102.964 72.8958 103.328 72.625C103.693 72.3542 103.982 71.9219 104.195 71.3281ZM99.5781 69.0547H104.211C104.148 68.3568 103.971 67.8333 103.68 67.4844C103.232 66.9427 102.651 66.6719 101.938 66.6719C101.292 66.6719 100.747 66.888 100.305 67.3203C99.8672 67.7526 99.625 68.3307 99.5781 69.0547ZM107.406 74V65.7031H108.672V66.9609C108.995 66.3724 109.292 65.9844 109.562 65.7969C109.839 65.6094 110.141 65.5156 110.469 65.5156C110.943 65.5156 111.424 65.6667 111.914 65.9688L111.43 67.2734C111.086 67.0703 110.742 66.9688 110.398 66.9688C110.091 66.9688 109.815 67.0625 109.57 67.25C109.326 67.4323 109.151 67.6875 109.047 68.0156C108.891 68.5156 108.812 69.0625 108.812 69.6562V74H107.406ZM112.227 69.8516C112.227 68.3151 112.654 67.1771 113.508 66.4375C114.221 65.8229 115.091 65.5156 116.117 65.5156C117.258 65.5156 118.19 65.8906 118.914 66.6406C119.638 67.3854 120 68.4167 120 69.7344C120 70.8021 119.839 71.6432 119.516 72.2578C119.198 72.8672 118.732 73.3411 118.117 73.6797C117.508 74.0182 116.841 74.1875 116.117 74.1875C114.956 74.1875 114.016 73.8151 113.297 73.0703C112.583 72.3255 112.227 71.2526 112.227 69.8516ZM113.672 69.8516C113.672 70.9141 113.904 71.7109 114.367 72.2422C114.831 72.7682 115.414 73.0312 116.117 73.0312C116.815 73.0312 117.396 72.7656 117.859 72.2344C118.323 71.7031 118.555 70.8932 118.555 69.8047C118.555 68.7786 118.32 68.0026 117.852 67.4766C117.388 66.9453 116.81 66.6797 116.117 66.6797C115.414 66.6797 114.831 66.9427 114.367 67.4688C113.904 67.9948 113.672 68.7891 113.672 69.8516ZM122.055 74V72.3984H123.656V74H122.055ZM125.547 71.5234L126.938 71.3047C127.016 71.862 127.232 72.2891 127.586 72.5859C127.945 72.8828 128.445 73.0312 129.086 73.0312C129.732 73.0312 130.211 72.901 130.523 72.6406C130.836 72.375 130.992 72.0651 130.992 71.7109C130.992 71.3932 130.854 71.1432 130.578 70.9609C130.385 70.8359 129.906 70.6771 129.141 70.4844C128.109 70.224 127.393 70 126.992 69.8125C126.596 69.6198 126.294 69.3568 126.086 69.0234C125.883 68.6849 125.781 68.3125 125.781 67.9062C125.781 67.5365 125.865 67.1953 126.031 66.8828C126.203 66.5651 126.435 66.3021 126.727 66.0938C126.945 65.9323 127.242 65.7969 127.617 65.6875C127.997 65.5729 128.404 65.5156 128.836 65.5156C129.487 65.5156 130.057 65.6094 130.547 65.7969C131.042 65.9844 131.406 66.2396 131.641 66.5625C131.875 66.8802 132.036 67.3073 132.125 67.8438L130.75 68.0312C130.688 67.6042 130.505 67.2708 130.203 67.0312C129.906 66.7917 129.484 66.6719 128.938 66.6719C128.292 66.6719 127.831 66.7786 127.555 66.9922C127.279 67.2057 127.141 67.4557 127.141 67.7422C127.141 67.9245 127.198 68.0885 127.312 68.2344C127.427 68.3854 127.607 68.5104 127.852 68.6094C127.992 68.6615 128.406 68.7812 129.094 68.9688C130.089 69.2344 130.781 69.4531 131.172 69.625C131.568 69.7917 131.878 70.0365 132.102 70.3594C132.326 70.6823 132.438 71.0833 132.438 71.5625C132.438 72.0312 132.299 72.474 132.023 72.8906C131.753 73.3021 131.359 73.6224 130.844 73.8516C130.328 74.0755 129.745 74.1875 129.094 74.1875C128.016 74.1875 127.193 73.9635 126.625 73.5156C126.062 73.0677 125.703 72.4036 125.547 71.5234ZM134.109 77.1797V65.7031H135.391V66.7812C135.693 66.3594 136.034 66.0443 136.414 65.8359C136.794 65.6224 137.255 65.5156 137.797 65.5156C138.505 65.5156 139.13 65.6979 139.672 66.0625C140.214 66.4271 140.622 66.9427 140.898 67.6094C141.174 68.2708 141.312 68.9974 141.312 69.7891C141.312 70.638 141.159 71.4036 140.852 72.0859C140.549 72.763 140.107 73.2839 139.523 73.6484C138.945 74.0078 138.336 74.1875 137.695 74.1875C137.227 74.1875 136.805 74.0885 136.43 73.8906C136.06 73.6927 135.755 73.4427 135.516 73.1406V77.1797H134.109ZM135.383 69.8984C135.383 70.9661 135.599 71.7552 136.031 72.2656C136.464 72.776 136.987 73.0312 137.602 73.0312C138.227 73.0312 138.76 72.7682 139.203 72.2422C139.651 71.7109 139.875 70.8906 139.875 69.7812C139.875 68.724 139.656 67.9323 139.219 67.4062C138.786 66.8802 138.268 66.6172 137.664 66.6172C137.065 66.6172 136.534 66.8984 136.07 67.4609C135.612 68.0182 135.383 68.8307 135.383 69.8984ZM148.43 72.9766C147.909 73.4193 147.406 73.7318 146.922 73.9141C146.443 74.0964 145.927 74.1875 145.375 74.1875C144.464 74.1875 143.763 73.9661 143.273 73.5234C142.784 73.0755 142.539 72.5052 142.539 71.8125C142.539 71.4062 142.63 71.0365 142.812 70.7031C143 70.3646 143.242 70.0938 143.539 69.8906C143.841 69.6875 144.18 69.5339 144.555 69.4297C144.831 69.3568 145.247 69.2865 145.805 69.2188C146.94 69.0833 147.776 68.9219 148.312 68.7344C148.318 68.5417 148.32 68.4193 148.32 68.3672C148.32 67.7943 148.188 67.3906 147.922 67.1562C147.562 66.8385 147.029 66.6797 146.32 66.6797C145.659 66.6797 145.169 66.7969 144.852 67.0312C144.539 67.2604 144.307 67.6693 144.156 68.2578L142.781 68.0703C142.906 67.4818 143.112 67.0078 143.398 66.6484C143.685 66.2839 144.099 66.0052 144.641 65.8125C145.182 65.6146 145.81 65.5156 146.523 65.5156C147.232 65.5156 147.807 65.599 148.25 65.7656C148.693 65.9323 149.018 66.1432 149.227 66.3984C149.435 66.6484 149.581 66.9661 149.664 67.3516C149.711 67.5911 149.734 68.0234 149.734 68.6484V70.5234C149.734 71.8307 149.763 72.6589 149.82 73.0078C149.883 73.3516 150.003 73.6823 150.18 74H148.711C148.565 73.7083 148.471 73.3672 148.43 72.9766ZM148.312 69.8359C147.802 70.0443 147.036 70.2214 146.016 70.3672C145.438 70.4505 145.029 70.5443 144.789 70.6484C144.549 70.7526 144.365 70.9062 144.234 71.1094C144.104 71.3073 144.039 71.5286 144.039 71.7734C144.039 72.1484 144.18 72.4609 144.461 72.7109C144.747 72.9609 145.164 73.0859 145.711 73.0859C146.253 73.0859 146.734 72.9688 147.156 72.7344C147.578 72.4948 147.888 72.1693 148.086 71.7578C148.237 71.4401 148.312 70.9714 148.312 70.3516V69.8359ZM157.336 70.9609L158.719 71.1406C158.568 72.0938 158.18 72.8411 157.555 73.3828C156.935 73.9193 156.172 74.1875 155.266 74.1875C154.13 74.1875 153.216 73.8177 152.523 73.0781C151.836 72.3333 151.492 71.2682 151.492 69.8828C151.492 68.987 151.641 68.2031 151.938 67.5312C152.234 66.8594 152.685 66.3568 153.289 66.0234C153.898 65.6849 154.56 65.5156 155.273 65.5156C156.174 65.5156 156.911 65.7448 157.484 66.2031C158.057 66.6562 158.424 67.3021 158.586 68.1406L157.219 68.3516C157.089 67.7943 156.857 67.375 156.523 67.0938C156.195 66.8125 155.797 66.6719 155.328 66.6719C154.62 66.6719 154.044 66.9271 153.602 67.4375C153.159 67.9427 152.938 68.7448 152.938 69.8438C152.938 70.9583 153.151 71.7682 153.578 72.2734C154.005 72.7786 154.562 73.0312 155.25 73.0312C155.802 73.0312 156.263 72.862 156.633 72.5234C157.003 72.1849 157.237 71.6641 157.336 70.9609ZM165.602 71.3281L167.055 71.5078C166.826 72.3568 166.401 73.0156 165.781 73.4844C165.161 73.9531 164.37 74.1875 163.406 74.1875C162.193 74.1875 161.229 73.8151 160.516 73.0703C159.807 72.3203 159.453 71.2708 159.453 69.9219C159.453 68.526 159.812 67.4427 160.531 66.6719C161.25 65.901 162.182 65.5156 163.328 65.5156C164.438 65.5156 165.344 65.8932 166.047 66.6484C166.75 67.4036 167.102 68.4661 167.102 69.8359C167.102 69.9193 167.099 70.0443 167.094 70.2109H160.906C160.958 71.1224 161.216 71.8203 161.68 72.3047C162.143 72.7891 162.721 73.0312 163.414 73.0312C163.93 73.0312 164.37 72.8958 164.734 72.625C165.099 72.3542 165.388 71.9219 165.602 71.3281ZM160.984 69.0547H165.617C165.555 68.3568 165.378 67.8333 165.086 67.4844C164.638 66.9427 164.057 66.6719 163.344 66.6719C162.698 66.6719 162.154 66.888 161.711 67.3203C161.273 67.7526 161.031 68.3307 160.984 69.0547Z" fill="white"/>
<path d="M103.917 12.2493C103.917 10.0035 102.079 8.16602 99.8333 8.16602H67.1666C64.9208 8.16602 63.0833 10.0035 63.0833 12.2493M103.917 12.2493V36.7493C103.917 38.9952 102.079 40.8327 99.8333 40.8327H67.1666C64.9208 40.8327 63.0833 38.9952 63.0833 36.7493V12.2493M103.917 12.2493L83.4999 26.541L63.0833 12.2493" stroke="white" stroke-width="4" stroke-linecap="round" stroke-linejoin="round"/>
</svg>
