<?xml version="1.0" encoding="UTF-8" standalone="no"?>
<svg
   xmlns:dc="http://purl.org/dc/elements/1.1/"
   xmlns:cc="http://creativecommons.org/ns#"
   xmlns:rdf="http://www.w3.org/1999/02/22-rdf-syntax-ns#"
   xmlns:svg="http://www.w3.org/2000/svg"
   xmlns="http://www.w3.org/2000/svg"
   xmlns:sodipodi="http://sodipodi.sourceforge.net/DTD/sodipodi-0.dtd"
   xmlns:inkscape="http://www.inkscape.org/namespaces/inkscape"
   width="116.58453mm"
   height="31.896847mm"
   viewBox="0 0 116.58453 31.896847"
   version="1.1"
   id="svg352"
   inkscape:version="1.0.2-2 (e86c870879, 2021-01-15)"
   sodipodi:docname="logo.svg">
  <defs
     id="defs346" />
  <sodipodi:namedview
     id="base"
     pagecolor="#ffffff"
     bordercolor="#666666"
     borderopacity="1.0"
     inkscape:pageopacity="0.0"
     inkscape:pageshadow="2"
     inkscape:zoom="11.2"
     inkscape:cx="145.79297"
     inkscape:cy="70.531362"
     inkscape:document-units="mm"
     inkscape:current-layer="layer2"
     inkscape:document-rotation="0"
     showgrid="false"
     fit-margin-top="0"
     fit-margin-left="0"
     fit-margin-right="0"
     fit-margin-bottom="0"
     inkscape:window-width="2560"
     inkscape:window-height="1377"
     inkscape:window-x="-8"
     inkscape:window-y="-8"
     inkscape:window-maximized="1" />
  <metadata
     id="metadata349">
    <rdf:RDF>
      <cc:Work
         rdf:about="">
        <dc:format>image/svg+xml</dc:format>
        <dc:type
           rdf:resource="http://purl.org/dc/dcmitype/StillImage" />
        <dc:title />
      </cc:Work>
    </rdf:RDF>
  </metadata>
  <g
     inkscape:label="Layer 1"
     inkscape:groupmode="layer"
     id="layer1"
     transform="translate(-29.946782,-78.356629)"
     style="display:inline">
    <g
       aria-label="ЯКУТСКИЕ АЭРОКОСМИЧЕСКИЕ СИСТЕМЫ"
       transform="matrix(0.63398628,0,0,0.64907986,17.803858,75.188109)"
       id="text3287"
       style="font-style:normal;font-variant:normal;font-weight:normal;font-stretch:normal;font-size:10.6761px;line-height:1.25;font-family:'Lucida Sans Unicode';-inkscape-font-specification:'Lucida Sans Unicode';fill:#ffffff;fill-opacity:1;stroke:none;stroke-width:0.66725">
      <path
         d="m 85.114023,20.2024 h -1.24068 v -3.054782 h -0.802792 q -0.307564,0 -0.542146,0.172027 -0.229369,0.172027 -0.495229,0.766302 l -0.8862,2.116453 h -1.449197 l 1.09993,-2.3771 q 0.130324,-0.276286 0.396183,-0.578636 0.271073,-0.307564 0.625553,-0.437887 v -0.02085 q -0.771515,-0.161601 -1.204189,-0.677682 -0.427461,-0.521294 -0.427461,-1.261531 0,-0.959181 0.714173,-1.537818 0.714173,-0.583849 1.876658,-0.583849 h 2.335397 z m -1.24068,-4.055667 v -2.403165 h -1.037375 q -0.635978,0 -0.985245,0.307564 -0.349267,0.307563 -0.349267,0.870561 0,0.56821 0.370119,0.896625 0.375331,0.328415 1.006097,0.328415 z"
         style="font-style:normal;font-variant:normal;font-weight:600;font-stretch:normal;font-size:10.6761px;font-family:'Lucida Sans';-inkscape-font-specification:'Lucida Sans Semi-Bold';fill:#ffffff;fill-opacity:1;stroke-width:0.66725"
         id="path4052" />
      <path
         d="m 92.620655,20.2024 h -1.616011 l -2.601257,-3.419688 q -0.145962,-0.192879 -0.17724,-0.260647 h -0.02085 V 20.2024 h -1.24068 v -7.475355 h 1.24068 v 3.513521 h 0.02085 q 0.06256,-0.114684 0.17724,-0.255434 l 2.507424,-3.258087 h 1.485688 l -2.934885,3.586502 z"
         style="font-style:normal;font-variant:normal;font-weight:600;font-stretch:normal;font-size:10.6761px;font-family:'Lucida Sans';-inkscape-font-specification:'Lucida Sans Semi-Bold';fill:#ffffff;fill-opacity:1;stroke-width:0.66725"
         id="path4054" />
      <path
         d="m 98.902247,12.727045 -2.324971,5.176449 q -0.646405,1.412707 -1.251106,1.923575 -0.599488,0.505655 -1.31366,0.505655 -0.568211,0 -0.948755,-0.161601 v -1.183338 q 0.453525,0.271073 0.870561,0.271073 0.370118,0 0.677682,-0.281499 0.312776,-0.281498 0.672469,-0.990458 l -2.496998,-5.259856 h 1.412706 l 1.543031,3.544799 q 0.04692,0.109472 0.182452,0.542146 h 0.01043 q 0.01564,-0.05213 0.198092,-0.542146 l 1.45441,-3.544799 z"
         style="font-style:normal;font-variant:normal;font-weight:600;font-stretch:normal;font-size:10.6761px;font-family:'Lucida Sans';-inkscape-font-specification:'Lucida Sans Semi-Bold';fill:#ffffff;fill-opacity:1;stroke-width:0.66725"
         id="path4056" />
      <path
         d="m 104.76159,13.780059 h -2.14773 V 20.2024 h -1.24068 v -6.422341 h -2.142519 v -1.053014 h 5.530929 z"
         style="font-style:normal;font-variant:normal;font-weight:600;font-stretch:normal;font-size:10.6761px;font-family:'Lucida Sans';-inkscape-font-specification:'Lucida Sans Semi-Bold';fill:#ffffff;fill-opacity:1;stroke-width:0.66725"
         id="path4058" />
      <path
         d="m 110.62615,19.889624 q -0.8445,0.437887 -2.10082,0.437887 -1.62643,0 -2.60647,-1.026949 -0.98003,-1.026949 -0.98003,-2.69509 0,-1.793251 1.09993,-2.898394 1.10514,-1.105143 2.78892,-1.105143 1.0843,0 1.79847,0.307563 v 1.230254 q -0.75588,-0.448313 -1.66814,-0.448313 -1.21462,0 -1.97049,0.776728 -0.75067,0.776728 -0.75067,2.07475 0,1.235466 0.70375,1.970491 0.70375,0.729811 1.85059,0.729811 1.05823,0 1.83496,-0.500442 z"
         style="font-style:normal;font-variant:normal;font-weight:600;font-stretch:normal;font-size:10.6761px;font-family:'Lucida Sans';-inkscape-font-specification:'Lucida Sans Semi-Bold';fill:#ffffff;fill-opacity:1;stroke-width:0.66725"
         id="path4060" />
      <path
         d="m 117.70011,20.2024 h -1.61602 l -2.60125,-3.419688 q -0.14596,-0.192879 -0.17724,-0.260647 h -0.0208 V 20.2024 h -1.24068 v -7.475355 h 1.24068 v 3.513521 h 0.0208 q 0.0626,-0.114684 0.17724,-0.255434 l 2.50742,-3.258087 h 1.48569 l -2.93489,3.586502 z"
         style="font-style:normal;font-variant:normal;font-weight:600;font-stretch:normal;font-size:10.6761px;font-family:'Lucida Sans';-inkscape-font-specification:'Lucida Sans Semi-Bold';fill:#ffffff;fill-opacity:1;stroke-width:0.66725"
         id="path4062" />
      <path
         d="m 124.90439,20.2024 h -1.19376 v -4.978357 q 0,-0.672469 0.0521,-0.948755 h -0.0313 q -0.0886,0.234582 -0.21895,0.432674 l -3.5865,5.494438 h -1.36057 v -7.475355 h 1.19897 v 4.754201 q 0,0.818431 -0.0417,1.068652 h 0.0208 q 0.10426,-0.208517 0.27107,-0.458738 l 3.46139,-5.364115 h 1.42835 z"
         style="font-style:normal;font-variant:normal;font-weight:600;font-stretch:normal;font-size:10.6761px;font-family:'Lucida Sans';-inkscape-font-specification:'Lucida Sans Semi-Bold';fill:#ffffff;fill-opacity:1;stroke-width:0.66725"
         id="path4064" />
      <path
         d="m 130.95661,20.2024 h -4.19641 v -7.475355 h 4.0296 v 1.053014 h -2.78892 v 2.116453 h 2.56997 v 1.047801 h -2.56997 v 2.210286 h 2.95573 z"
         style="font-style:normal;font-variant:normal;font-weight:600;font-stretch:normal;font-size:10.6761px;font-family:'Lucida Sans';-inkscape-font-specification:'Lucida Sans Semi-Bold';fill:#ffffff;fill-opacity:1;stroke-width:0.66725"
         id="path4066" />
      <path
         d="m 86.56322,33.730379 h -1.360577 l -0.672469,-1.902723 h -2.940098 l -0.646405,1.902723 h -1.355364 l 2.799349,-7.475355 h 1.397067 z m -2.361462,-2.914033 -1.037374,-2.981801 q -0.04692,-0.145963 -0.09905,-0.469165 h -0.02085 q -0.04692,0.297138 -0.104259,0.469165 l -1.026949,2.981801 z"
         style="font-style:normal;font-variant:normal;font-weight:600;font-stretch:normal;font-size:10.6761px;font-family:'Lucida Sans';-inkscape-font-specification:'Lucida Sans Semi-Bold';fill:#ffffff;fill-opacity:1;stroke-width:0.66725"
         id="path4068" />
      <path
         d="M 87.167921,33.443667 V 32.31246 q 0.792367,0.495229 1.928787,0.495229 1.021736,0 1.668141,-0.599488 0.651617,-0.604701 0.729811,-1.678567 h -3.117337 v -1.032162 h 3.117337 q -0.12511,-1.094717 -0.766302,-1.699418 -0.641191,-0.609914 -1.66814,-0.609914 -1.042588,0 -1.892297,0.4431 v -1.18855 q 0.818431,-0.312776 1.965278,-0.312776 1.647289,0 2.674238,1.073865 1.026949,1.068653 1.026949,2.861904 0,1.678566 -0.990459,2.736793 -0.985245,1.053014 -2.601256,1.053014 -1.230254,0 -2.07475,-0.411823 z"
         style="font-style:normal;font-variant:normal;font-weight:600;font-stretch:normal;font-size:10.6761px;font-family:'Lucida Sans';-inkscape-font-specification:'Lucida Sans Semi-Bold';fill:#ffffff;fill-opacity:1;stroke-width:0.66725"
         id="path4070" />
      <path
         d="m 95.440856,31.019651 v 2.710728 h -1.235467 v -7.475355 h 2.267629 q 1.287596,0 1.996555,0.599488 0.70896,0.599488 0.70896,1.688992 0,1.089505 -0.740237,1.782826 -0.740238,0.693321 -2.001769,0.693321 z m 0,-3.742891 v 2.73158 h 0.802792 q 0.79758,0 1.214615,-0.370118 0.417035,-0.370119 0.417035,-1.042588 0,-1.318874 -1.532604,-1.318874 z"
         style="font-style:normal;font-variant:normal;font-weight:600;font-stretch:normal;font-size:10.6761px;font-family:'Lucida Sans';-inkscape-font-specification:'Lucida Sans Semi-Bold';fill:#ffffff;fill-opacity:1;stroke-width:0.66725"
         id="path4072" />
      <path
         d="m 103.47921,33.85549 q -1.61601,0 -2.59083,-1.047801 -0.96961,-1.047801 -0.96961,-2.726367 0,-1.803677 0.99046,-2.877543 0.99046,-1.073865 2.68987,-1.073865 1.57431,0 2.53349,1.042587 0.9644,1.042588 0.9644,2.726368 0,1.829741 -0.98525,2.893181 -0.98524,1.06344 -2.63253,1.06344 z m 0.0573,-6.636072 q -1.02695,0 -1.67335,0.766302 -0.6412,0.766302 -0.6412,2.017408 0,1.245892 0.62556,2.006981 0.62555,0.761089 1.63686,0.761089 1.07387,0 1.69421,-0.724598 0.62034,-0.724599 0.62034,-2.027834 0,-1.339725 -0.60471,-2.069537 -0.59948,-0.729811 -1.65771,-0.729811 z"
         style="font-style:normal;font-variant:normal;font-weight:600;font-stretch:normal;font-size:10.6761px;font-family:'Lucida Sans';-inkscape-font-specification:'Lucida Sans Semi-Bold';fill:#ffffff;fill-opacity:1;stroke-width:0.66725"
         id="path4074" />
      <path
         d="m 114.12403,33.730379 h -1.61601 l -2.60126,-3.419688 q -0.14596,-0.192879 -0.17724,-0.260647 h -0.0208 v 3.680335 h -1.24068 v -7.475355 h 1.24068 v 3.513521 h 0.0208 q 0.0626,-0.114684 0.17724,-0.255434 l 2.50742,-3.258087 h 1.48569 l -2.93488,3.586502 z"
         style="font-style:normal;font-variant:normal;font-weight:600;font-stretch:normal;font-size:10.6761px;font-family:'Lucida Sans';-inkscape-font-specification:'Lucida Sans Semi-Bold';fill:#ffffff;fill-opacity:1;stroke-width:0.66725"
         id="path4076" />
      <path
         d="m 117.63234,33.85549 q -1.61601,0 -2.59083,-1.047801 -0.96961,-1.047801 -0.96961,-2.726367 0,-1.803677 0.99046,-2.877543 0.99046,-1.073865 2.68987,-1.073865 1.57431,0 2.53349,1.042587 0.9644,1.042588 0.9644,2.726368 0,1.829741 -0.98525,2.893181 -0.98524,1.06344 -2.63253,1.06344 z m 0.0573,-6.636072 q -1.02695,0 -1.67335,0.766302 -0.6412,0.766302 -0.6412,2.017408 0,1.245892 0.62556,2.006981 0.62555,0.761089 1.63686,0.761089 1.07387,0 1.69421,-0.724598 0.62033,-0.724599 0.62033,-2.027834 0,-1.339725 -0.6047,-2.069537 -0.59948,-0.729811 -1.65771,-0.729811 z"
         style="font-style:normal;font-variant:normal;font-weight:600;font-stretch:normal;font-size:10.6761px;font-family:'Lucida Sans';-inkscape-font-specification:'Lucida Sans Semi-Bold';fill:#ffffff;fill-opacity:1;stroke-width:0.66725"
         id="path4078" />
      <path
         d="m 127.83406,33.417603 q -0.8445,0.437887 -2.10082,0.437887 -1.62643,0 -2.60647,-1.026949 -0.98003,-1.026949 -0.98003,-2.69509 0,-1.793251 1.09993,-2.898394 1.10515,-1.105143 2.78892,-1.105143 1.0843,0 1.79847,0.307563 v 1.230254 q -0.75588,-0.448313 -1.66814,-0.448313 -1.21462,0 -1.97049,0.776728 -0.75067,0.776728 -0.75067,2.07475 0,1.235466 0.70375,1.970491 0.70375,0.729811 1.85059,0.729811 1.05823,0 1.83496,-0.500442 z"
         style="font-style:normal;font-variant:normal;font-weight:600;font-stretch:normal;font-size:10.6761px;font-family:'Lucida Sans';-inkscape-font-specification:'Lucida Sans Semi-Bold';fill:#ffffff;fill-opacity:1;stroke-width:0.66725"
         id="path4080" />
      <path
         d="m 137.27991,33.730379 h -1.23026 v -4.837608 q 0,-0.594275 0.073,-1.45441 h -0.0208 q -0.11468,0.490017 -0.2033,0.703747 l -2.23114,5.588271 h -0.85492 l -2.23635,-5.546567 q -0.0938,-0.245008 -0.1981,-0.745451 h -0.0208 q 0.0417,0.448313 0.0417,1.464836 v 4.827182 h -1.14685 v -7.475355 h 1.74633 l 1.96528,4.978357 q 0.22416,0.573424 0.29193,0.854922 h 0.0261 q 0.19288,-0.589062 0.31278,-0.875774 l 2.00177,-4.957505 h 1.68378 z"
         style="font-style:normal;font-variant:normal;font-weight:600;font-stretch:normal;font-size:10.6761px;font-family:'Lucida Sans';-inkscape-font-specification:'Lucida Sans Semi-Bold';fill:#ffffff;fill-opacity:1;stroke-width:0.66725"
         id="path4082" />
      <path
         d="m 145.45901,33.730379 h -1.19376 v -4.978357 q 0,-0.672469 0.0521,-0.948755 h -0.0313 q -0.0886,0.234582 -0.21895,0.432674 l -3.5865,5.494438 h -1.36058 v -7.475355 h 1.19898 v 4.754201 q 0,0.818431 -0.0417,1.068652 h 0.0208 q 0.10426,-0.208517 0.27107,-0.458738 l 3.46139,-5.364115 h 1.42835 z"
         style="font-style:normal;font-variant:normal;font-weight:600;font-stretch:normal;font-size:10.6761px;font-family:'Lucida Sans';-inkscape-font-specification:'Lucida Sans Semi-Bold';fill:#ffffff;fill-opacity:1;stroke-width:0.66725"
         id="path4084" />
      <path
         d="m 152.78318,33.730379 h -1.24068 v -3.185106 q -1.17291,0.604701 -2.179,0.604701 -1.03738,0 -1.60559,-0.521294 -0.563,-0.526507 -0.563,-1.475262 v -2.898394 h 1.23547 v 2.674238 q 0,1.162485 1.18855,1.162485 0.8445,0 1.92357,-0.542145 v -3.294578 h 1.24068 z"
         style="font-style:normal;font-variant:normal;font-weight:600;font-stretch:normal;font-size:10.6761px;font-family:'Lucida Sans';-inkscape-font-specification:'Lucida Sans Semi-Bold';fill:#ffffff;fill-opacity:1;stroke-width:0.66725"
         id="path4086" />
      <path
         d="m 158.88233,33.730379 h -4.19642 v -7.475355 h 4.0296 v 1.053014 h -2.78892 v 2.116453 h 2.56998 v 1.047801 h -2.56998 v 2.210286 h 2.95574 z"
         style="font-style:normal;font-variant:normal;font-weight:600;font-stretch:normal;font-size:10.6761px;font-family:'Lucida Sans';-inkscape-font-specification:'Lucida Sans Semi-Bold';fill:#ffffff;fill-opacity:1;stroke-width:0.66725"
         id="path4088" />
      <path
         d="m 165.42456,33.417603 q -0.84449,0.437887 -2.10081,0.437887 -1.62644,0 -2.60647,-1.026949 -0.98003,-1.026949 -0.98003,-2.69509 0,-1.793251 1.09993,-2.898394 1.10514,-1.105143 2.78892,-1.105143 1.08429,0 1.79846,0.307563 v 1.230254 q -0.75587,-0.448313 -1.66814,-0.448313 -1.21461,0 -1.97049,0.776728 -0.75066,0.776728 -0.75066,2.07475 0,1.235466 0.70374,1.970491 0.70375,0.729811 1.8506,0.729811 1.05822,0 1.83495,-0.500442 z"
         style="font-style:normal;font-variant:normal;font-weight:600;font-stretch:normal;font-size:10.6761px;font-family:'Lucida Sans';-inkscape-font-specification:'Lucida Sans Semi-Bold';fill:#ffffff;fill-opacity:1;stroke-width:0.66725"
         id="path4090" />
      <path
         d="m 172.49852,33.730379 h -1.61601 l -2.60126,-3.419688 q -0.14596,-0.192879 -0.17724,-0.260647 h -0.0208 v 3.680335 h -1.24068 v -7.475355 h 1.24068 v 3.513521 h 0.0208 q 0.0626,-0.114684 0.17724,-0.255434 l 2.50743,-3.258087 h 1.48569 l -2.93489,3.586502 z"
         style="font-style:normal;font-variant:normal;font-weight:600;font-stretch:normal;font-size:10.6761px;font-family:'Lucida Sans';-inkscape-font-specification:'Lucida Sans Semi-Bold';fill:#ffffff;fill-opacity:1;stroke-width:0.66725"
         id="path4092" />
      <path
         d="m 179.70281,33.730379 h -1.19376 v -4.978357 q 0,-0.672469 0.0521,-0.948755 h -0.0313 q -0.0886,0.234582 -0.21895,0.432674 l -3.5865,5.494438 h -1.36057 v -7.475355 h 1.19897 v 4.754201 q 0,0.818431 -0.0417,1.068652 h 0.0208 q 0.10426,-0.208517 0.27107,-0.458738 l 3.46139,-5.364115 h 1.42835 z"
         style="font-style:normal;font-variant:normal;font-weight:600;font-stretch:normal;font-size:10.6761px;font-family:'Lucida Sans';-inkscape-font-specification:'Lucida Sans Semi-Bold';fill:#ffffff;fill-opacity:1;stroke-width:0.66725"
         id="path4094" />
      <path
         d="m 185.75503,33.730379 h -4.19641 v -7.475355 h 4.0296 v 1.053014 h -2.78892 v 2.116453 h 2.56997 v 1.047801 h -2.56997 v 2.210286 h 2.95573 z"
         style="font-style:normal;font-variant:normal;font-weight:600;font-stretch:normal;font-size:10.6761px;font-family:'Lucida Sans';-inkscape-font-specification:'Lucida Sans Semi-Bold';fill:#ffffff;fill-opacity:1;stroke-width:0.66725"
         id="path4096" />
      <path
         d="m 85.635317,46.945582 q -0.844496,0.437887 -2.100815,0.437887 -1.626437,0 -2.606469,-1.026949 Q 79.948,45.329571 79.948,43.66143 q 0,-1.793251 1.09993,-2.898394 1.105143,-1.105143 2.788923,-1.105143 1.084291,0 1.798464,0.307563 v 1.230254 q -0.755876,-0.448313 -1.668141,-0.448313 -1.214615,0 -1.970491,0.776728 -0.750663,0.776728 -0.750663,2.07475 0,1.235466 0.703747,1.970491 0.703746,0.729811 1.850593,0.729811 1.058227,0 1.834955,-0.500442 z"
         style="font-style:normal;font-variant:normal;font-weight:600;font-stretch:normal;font-size:10.6761px;font-family:'Lucida Sans';-inkscape-font-specification:'Lucida Sans Semi-Bold';fill:#ffffff;fill-opacity:1;stroke-width:0.66725"
         id="path4098" />
      <path
         d="m 93.392171,47.258358 h -1.193764 v -4.978357 q 0,-0.672469 0.05213,-0.948755 h -0.03128 q -0.08862,0.234582 -0.218943,0.432674 l -3.586502,5.494438 h -1.360578 v -7.475355 h 1.198976 v 4.754201 q 0,0.818431 -0.0417,1.068652 h 0.02085 q 0.104258,-0.208517 0.271072,-0.458738 l 3.461392,-5.364115 h 1.428346 z"
         style="font-style:normal;font-variant:normal;font-weight:600;font-stretch:normal;font-size:10.6761px;font-family:'Lucida Sans';-inkscape-font-specification:'Lucida Sans Semi-Bold';fill:#ffffff;fill-opacity:1;stroke-width:0.66725"
         id="path4100" />
      <path
         d="m 100.46092,46.945582 q -0.8445,0.437887 -2.100818,0.437887 -1.626437,0 -2.60647,-1.026949 -0.980032,-1.026949 -0.980032,-2.69509 0,-1.793251 1.09993,-2.898394 1.105143,-1.105143 2.788922,-1.105143 1.084292,0 1.798468,0.307563 v 1.230254 q -0.75588,-0.448313 -1.668144,-0.448313 -1.214615,0 -1.970491,0.776728 -0.750663,0.776728 -0.750663,2.07475 0,1.235466 0.703746,1.970491 0.703747,0.729811 1.850594,0.729811 1.058227,0 1.834958,-0.500442 z"
         style="font-style:normal;font-variant:normal;font-weight:600;font-stretch:normal;font-size:10.6761px;font-family:'Lucida Sans';-inkscape-font-specification:'Lucida Sans Semi-Bold';fill:#ffffff;fill-opacity:1;stroke-width:0.66725"
         id="path4102" />
      <path
         d="m 106.67474,40.836017 h -2.14773 v 6.422341 h -1.24068 v -6.422341 h -2.14252 v -1.053014 h 5.53093 z"
         style="font-style:normal;font-variant:normal;font-weight:600;font-stretch:normal;font-size:10.6761px;font-family:'Lucida Sans';-inkscape-font-specification:'Lucida Sans Semi-Bold';fill:#ffffff;fill-opacity:1;stroke-width:0.66725"
         id="path4104" />
      <path
         d="m 111.96587,47.258358 h -4.19641 v -7.475355 h 4.0296 v 1.053014 h -2.78892 v 2.116453 h 2.56998 v 1.047801 h -2.56998 v 2.210286 h 2.95573 z"
         style="font-style:normal;font-variant:normal;font-weight:600;font-stretch:normal;font-size:10.6761px;font-family:'Lucida Sans';-inkscape-font-specification:'Lucida Sans Semi-Bold';fill:#ffffff;fill-opacity:1;stroke-width:0.66725"
         id="path4106" />
      <path
         d="m 121.3231,47.258358 h -1.23025 V 42.42075 q 0,-0.594275 0.073,-1.45441 h -0.0209 q -0.11468,0.490017 -0.2033,0.703747 l -2.23114,5.588271 h -0.85492 l -2.23635,-5.546567 q -0.0938,-0.245009 -0.19809,-0.745451 h -0.0209 q 0.0417,0.448313 0.0417,1.464836 v 4.827182 h -1.14685 v -7.475355 h 1.74634 l 1.96528,4.978357 q 0.22415,0.573423 0.29192,0.854922 h 0.0261 q 0.19288,-0.589062 0.31278,-0.875774 l 2.00177,-4.957505 h 1.68378 z"
         style="font-style:normal;font-variant:normal;font-weight:600;font-stretch:normal;font-size:10.6761px;font-family:'Lucida Sans';-inkscape-font-specification:'Lucida Sans Semi-Bold';fill:#ffffff;fill-opacity:1;stroke-width:0.66725"
         id="path4108" />
      <path
         d="m 130.2268,47.258358 h -1.23547 v -7.475355 h 1.23547 z m -7.06353,0 v -7.475355 h 1.23546 v 3.007866 h 1.27717 q 1.18855,0 1.8506,0.552572 0.66204,0.552571 0.66204,1.574307 0,1.084292 -0.69853,1.715057 -0.69332,0.625553 -1.8923,0.625553 z m 1.23546,-3.461392 v 2.450082 h 1.07387 q 0.67768,0 1.04259,-0.328415 0.37012,-0.328416 0.37012,-0.917478 0,-1.204189 -1.41271,-1.204189 z"
         style="font-style:normal;font-variant:normal;font-weight:600;font-stretch:normal;font-size:10.6761px;font-family:'Lucida Sans';-inkscape-font-specification:'Lucida Sans Semi-Bold';fill:#ffffff;fill-opacity:1;stroke-width:0.66725"
         id="path4110" />
    </g>
  </g>
  <g
     inkscape:groupmode="layer"
     id="layer2"
     inkscape:label="Layer 2"
     style="display:inline">
    <circle
       style="font-style:normal;font-variant:normal;font-weight:normal;font-stretch:normal;font-size:10.6761px;line-height:1.25;font-family:'Lucida Sans Unicode';-inkscape-font-specification:'Lucida Sans Unicode';fill:#f2f2f2;fill-opacity:1;stroke:none;stroke-width:0.476382;stroke-miterlimit:4;stroke-dasharray:none"
       id="path1923-1-8-0-1"
       cx="21.744997"
       cy="16.607544"
       inkscape:export-filename="C:\Users\localuser-1\Desktop\path1923.png"
       inkscape:export-xdpi="96"
       inkscape:export-ydpi="96"
       r="12.030503" />
    <ellipse
       style="font-style:normal;font-variant:normal;font-weight:normal;font-stretch:normal;font-size:10.6761px;line-height:1.25;font-family:'Lucida Sans Unicode';-inkscape-font-specification:'Lucida Sans Unicode';fill:#000000;fill-opacity:1;stroke:none;stroke-width:0.632811;stroke-miterlimit:4;stroke-dasharray:none"
       id="path1927-63-9-4-0"
       cx="11.174936"
       cy="26.774574"
       rx="11.120756"
       ry="10.856029"
       transform="matrix(0.86241409,-0.50620346,0.48441681,0.87483733,0,0)"
       inkscape:export-filename="C:\Users\localuser-1\Desktop\path1923.png"
       inkscape:export-xdpi="96"
       inkscape:export-ydpi="96" />
    <ellipse
       style="font-style:normal;font-variant:normal;font-weight:normal;font-stretch:normal;font-size:10.6761px;line-height:1.25;font-family:'Lucida Sans Unicode';-inkscape-font-specification:'Lucida Sans Unicode';fill:#f2f2f2;fill-opacity:1;stroke:none;stroke-width:0.570131;stroke-miterlimit:4;stroke-dasharray:none"
       id="path1927-6-7-7-4-3"
       cx="14.06093"
       cy="27.169989"
       rx="10.42522"
       ry="9.7501955"
       transform="matrix(0.89184596,-0.45233924,0.3875016,0.92186903,0,0)"
       inkscape:export-filename="C:\Users\localuser-1\Desktop\path1923.png"
       inkscape:export-xdpi="96"
       inkscape:export-ydpi="96" />
    <ellipse
       style="font-style:normal;font-variant:normal;font-weight:normal;font-stretch:normal;font-size:10.6761px;line-height:1.25;font-family:'Lucida Sans Unicode';-inkscape-font-specification:'Lucida Sans Unicode';fill:#f2f2f2;fill-opacity:1;stroke:none;stroke-width:0.635913;stroke-linecap:round;stroke-miterlimit:4;stroke-dasharray:none"
       id="path3099-8-7-6-2"
       cx="31.550537"
       cy="-8.3831806"
       rx="7.6169353"
       ry="9.7007475"
       transform="matrix(0.59055848,0.80699484,-0.77439023,0.63270828,0,0)"
       inkscape:export-filename="C:\Users\localuser-1\Desktop\path1923.png"
       inkscape:export-xdpi="96"
       inkscape:export-ydpi="96" />
    <ellipse
       style="font-style:normal;font-variant:normal;font-weight:normal;font-stretch:normal;font-size:10.6761px;line-height:1.25;font-family:'Lucida Sans Unicode';-inkscape-font-specification:'Lucida Sans Unicode';fill:#000000;fill-opacity:1;stroke:none;stroke-width:0.669276;stroke-linecap:round;stroke-miterlimit:4;stroke-dasharray:none"
       id="path3099-2-1-9-1-7"
       cx="30.322996"
       cy="-6.6390033"
       rx="8.6534185"
       ry="10.198741"
       transform="matrix(0.61358852,0.78962594,-0.7479307,0.66377682,0,0)"
       inkscape:export-filename="C:\Users\localuser-1\Desktop\path1923.png"
       inkscape:export-xdpi="96"
       inkscape:export-ydpi="96" />
    <path
       style="font-style:normal;font-variant:normal;font-weight:normal;font-stretch:normal;font-size:10.6761px;line-height:1.25;font-family:'Lucida Sans Unicode';-inkscape-font-specification:'Lucida Sans Unicode';fill:#222222;fill-opacity:1;stroke:#f2f2f2;stroke-width:1.31049;stroke-linecap:round;stroke-linejoin:miter;stroke-miterlimit:4;stroke-dasharray:none;stroke-opacity:1"
       d="M 34.024244,11.178763 22.298019,2.2159579"
       id="path2945-8-5-3-1-3-1-8"
       inkscape:export-filename="C:\Users\localuser-1\Desktop\path1923.png"
       inkscape:export-xdpi="96"
       inkscape:export-ydpi="96"
       sodipodi:nodetypes="cc" />
    <circle
       style="font-style:normal;font-variant:normal;font-weight:normal;font-stretch:normal;font-size:10.6761px;line-height:1.25;font-family:'Lucida Sans Unicode';-inkscape-font-specification:'Lucida Sans Unicode';fill:#ffffff;fill-opacity:1;stroke:#ffffff;stroke-width:0.743255;stroke-linecap:round;stroke-miterlimit:4;stroke-dasharray:none;stroke-opacity:1"
       id="path3021-35"
       cx="31.996092"
       cy="13.792783"
       r="3.5754919" />
    <path
       style="font-style:normal;font-variant:normal;font-weight:normal;font-stretch:normal;font-size:10.6761px;line-height:1.25;font-family:'Lucida Sans Unicode';-inkscape-font-specification:'Lucida Sans Unicode';fill:#f2f2f2;fill-opacity:1;stroke:#f2f2f2;stroke-width:1.31049;stroke-linecap:round;stroke-linejoin:miter;stroke-miterlimit:4;stroke-dasharray:none;stroke-opacity:1"
       d="m 31.357691,17.018028 -14.69438,-3.46486"
       id="path2945-8-5-3-1-3-0"
       inkscape:export-filename="C:\Users\localuser-1\Desktop\path1923.png"
       inkscape:export-xdpi="96"
       inkscape:export-ydpi="96"
       sodipodi:nodetypes="cc" />
    <path
       style="font-style:normal;font-variant:normal;font-weight:normal;font-stretch:normal;font-size:10.6761px;line-height:1.25;font-family:'Lucida Sans Unicode';-inkscape-font-specification:'Lucida Sans Unicode';fill:#000000;fill-opacity:1;stroke:#000000;stroke-width:0.476508;stroke-linecap:round;stroke-linejoin:miter;stroke-miterlimit:4;stroke-dasharray:none;stroke-opacity:1"
       d="M 31.590322,17.093048 16.663311,13.553168"
       id="path2941-6-6-1-8"
       inkscape:export-filename="C:\Users\localuser-1\Desktop\path1923.png"
       inkscape:export-xdpi="96"
       inkscape:export-ydpi="96"
       sodipodi:nodetypes="cc" />
    <path
       style="font-style:normal;font-variant:normal;font-weight:normal;font-stretch:normal;font-size:10.6761px;line-height:1.25;font-family:'Lucida Sans Unicode';-inkscape-font-specification:'Lucida Sans Unicode';fill:#000000;fill-opacity:1;stroke:#000000;stroke-width:0.490429;stroke-linecap:round;stroke-linejoin:miter;stroke-miterlimit:4;stroke-dasharray:none;stroke-opacity:1"
       d="M 34.024244,11.178763 22.298019,2.2159579"
       id="path2947-2-0-8-2"
       inkscape:export-filename="C:\Users\localuser-1\Desktop\path1923.png"
       inkscape:export-xdpi="96"
       inkscape:export-ydpi="96"
       sodipodi:nodetypes="cc" />
    <ellipse
       style="font-style:normal;font-variant:normal;font-weight:normal;font-stretch:normal;font-size:10.6761px;line-height:1.25;font-family:'Lucida Sans Unicode';-inkscape-font-specification:'Lucida Sans Unicode';fill:#222222;fill-opacity:1;stroke:none;stroke-width:0.631349;stroke-miterlimit:4;stroke-dasharray:none"
       id="path2786-7-1-8-1-6"
       cx="35.710987"
       cy="16.484329"
       rx="2.3595979"
       ry="2.4735415"
       transform="matrix(0.99912071,-0.04192628,-0.16270951,0.98667402,0,0)"
       inkscape:transform-center-x="-0.19644182"
       inkscape:transform-center-y="0.1945094"
       inkscape:export-filename="C:\Users\localuser-1\Desktop\path1923.png"
       inkscape:export-xdpi="96"
       inkscape:export-ydpi="96" />
    <ellipse
       style="font-style:normal;font-variant:normal;font-weight:normal;font-stretch:normal;font-size:10.6761px;line-height:1.25;font-family:'Lucida Sans Unicode';-inkscape-font-specification:'Lucida Sans Unicode';fill:#222222;fill-opacity:1;stroke:none;stroke-width:0.679187;stroke-miterlimit:4;stroke-dasharray:none"
       id="path2786-5-8-2-1-3"
       cx="31.881392"
       cy="26.170404"
       rx="2.7712812"
       ry="2.4373529"
       transform="matrix(0.93302978,-0.35979915,0.11574506,0.99327895,0,0)"
       inkscape:export-filename="C:\Users\localuser-1\Desktop\path1923.png"
       inkscape:export-xdpi="96"
       inkscape:export-ydpi="96" />
    <ellipse
       style="font-style:normal;font-variant:normal;font-weight:normal;font-stretch:normal;font-size:10.6761px;line-height:1.25;font-family:'Lucida Sans Unicode';-inkscape-font-specification:'Lucida Sans Unicode';fill:#222222;fill-opacity:1;stroke:none;stroke-width:0.39204;stroke-miterlimit:4;stroke-dasharray:none"
       id="path1947-3-9-1-8-1"
       cx="32.397877"
       cy="17.723455"
       rx="3.0731297"
       ry="3.2152035"
       transform="matrix(0.99203366,-0.12597307,0,1,0,0)"
       inkscape:export-filename="C:\Users\localuser-1\Desktop\path1923.png"
       inkscape:export-xdpi="96"
       inkscape:export-ydpi="96" />
    <path
       style="font-style:normal;font-variant:normal;font-weight:normal;font-stretch:normal;font-size:10.6761px;line-height:1.25;font-family:'Lucida Sans Unicode';-inkscape-font-specification:'Lucida Sans Unicode';fill:#222222;fill-opacity:1;stroke:#f2f2f2;stroke-width:1.31049;stroke-linecap:round;stroke-linejoin:miter;stroke-miterlimit:4;stroke-dasharray:none;stroke-opacity:1"
       d="M 31.148355,13.317082 15.748343,6.3599565"
       id="path2945-8-5-3-1-1"
       inkscape:export-filename="C:\Users\localuser-1\Desktop\path1923.png"
       inkscape:export-xdpi="96"
       inkscape:export-ydpi="96"
       sodipodi:nodetypes="cc" />
    <path
       style="font-style:normal;font-variant:normal;font-weight:normal;font-stretch:normal;font-size:10.6761px;line-height:1.25;font-family:'Lucida Sans Unicode';-inkscape-font-specification:'Lucida Sans Unicode';fill:#000000;fill-opacity:1;stroke:#000000;stroke-width:0.508332px;stroke-linecap:round;stroke-linejoin:miter;stroke-miterlimit:4;stroke-dasharray:none;stroke-opacity:1"
       d="M 31.148355,13.317082 15.748343,6.3599565"
       id="path2945-8-5-3-2"
       inkscape:export-filename="C:\Users\localuser-1\Desktop\path1923.png"
       inkscape:export-xdpi="96"
       inkscape:export-ydpi="96"
       sodipodi:nodetypes="cc" />
    <ellipse
       style="font-style:normal;font-variant:normal;font-weight:normal;font-stretch:normal;font-size:10.6761px;line-height:1.25;font-family:'Lucida Sans Unicode';-inkscape-font-specification:'Lucida Sans Unicode';fill:#000000;fill-opacity:1;stroke:none;stroke-width:0.442357;stroke-miterlimit:4;stroke-dasharray:none"
       id="path1947-1-3-3-7"
       cx="32.000999"
       cy="13.784657"
       rx="3.5189214"
       ry="3.5747778"
       inkscape:export-filename="C:\Users\localuser-1\Desktop\path1923.png"
       inkscape:export-xdpi="96"
       inkscape:export-ydpi="96" />
    <ellipse
       style="font-style:normal;font-variant:normal;font-weight:normal;font-stretch:normal;font-size:10.6761px;line-height:1.25;font-family:'Lucida Sans Unicode';-inkscape-font-specification:'Lucida Sans Unicode';fill:#000000;fill-opacity:1;stroke:none;stroke-width:0.699535;stroke-miterlimit:4;stroke-dasharray:none"
       id="path2917-0-4-1-8"
       cx="19.403393"
       cy="29.549761"
       rx="3.1196456"
       ry="2.5598018"
       transform="matrix(0.79404437,-0.6078598,0.53799294,0.84294934,0,0)"
       inkscape:export-filename="C:\Users\localuser-1\Desktop\path1923.png"
       inkscape:export-xdpi="96"
       inkscape:export-ydpi="96" />
  </g>
</svg>
