<svg width="223" height="93" viewBox="0 0 223 93" fill="none" xmlns="http://www.w3.org/2000/svg">
<path d="M10.4375 62.7031H15.2109V63.8672H11.8438V71H10.4375V62.7031ZM14.7188 71V69.3984H16.3203V71H14.7188ZM32.4688 71V59.5469H27.3906C26.3698 59.5469 25.5938 59.651 25.0625 59.8594C24.5312 60.0625 24.1068 60.4245 23.7891 60.9453C23.4714 61.4661 23.3125 62.0417 23.3125 62.6719C23.3125 63.4844 23.5755 64.1693 24.1016 64.7266C24.6276 65.2839 25.4401 65.638 26.5391 65.7891C26.138 65.9818 25.8333 66.1719 25.625 66.3594C25.1823 66.7656 24.763 67.2734 24.3672 67.8828L22.375 71H24.2812L25.7969 68.6172C26.2396 67.9297 26.6042 67.4036 26.8906 67.0391C27.1771 66.6745 27.4323 66.4193 27.6562 66.2734C27.8854 66.1276 28.1172 66.026 28.3516 65.9688C28.5234 65.9323 28.8047 65.9141 29.1953 65.9141H30.9531V71H32.4688ZM30.9531 64.6016H27.6953C27.0026 64.6016 26.4609 64.5312 26.0703 64.3906C25.6797 64.2448 25.3828 64.0156 25.1797 63.7031C24.9766 63.3854 24.875 63.0417 24.875 62.6719C24.875 62.1302 25.0703 61.6849 25.4609 61.3359C25.8568 60.987 26.4792 60.8125 27.3281 60.8125H30.9531V64.6016ZM34.7812 62.7031H36.1875V66.2891C36.6354 66.2891 36.9479 66.2031 37.125 66.0312C37.3073 65.8594 37.5729 65.3594 37.9219 64.5312C38.1979 63.875 38.4219 63.4427 38.5938 63.2344C38.7656 63.026 38.9635 62.8854 39.1875 62.8125C39.4115 62.7396 39.7708 62.7031 40.2656 62.7031H40.5469V63.8672L40.1562 63.8594C39.7865 63.8594 39.5495 63.9141 39.4453 64.0234C39.3359 64.138 39.1693 64.4792 38.9453 65.0469C38.7318 65.5885 38.5365 65.9635 38.3594 66.1719C38.1823 66.3802 37.9089 66.5703 37.5391 66.7422C38.1432 66.9036 38.737 67.4661 39.3203 68.4297L40.8594 71H39.3125L37.8125 68.4297C37.5052 67.9141 37.237 67.5755 37.0078 67.4141C36.7786 67.2474 36.5052 67.1641 36.1875 67.1641V71H34.7812V62.7031ZM41.9141 74.1953L41.7578 72.875C42.0651 72.9583 42.3333 73 42.5625 73C42.875 73 43.125 72.9479 43.3125 72.8438C43.5 72.7396 43.6536 72.5938 43.7734 72.4062C43.862 72.2656 44.0052 71.9167 44.2031 71.3594C44.2292 71.2812 44.2708 71.1667 44.3281 71.0156L41.1797 62.7031H42.6953L44.4219 67.5078C44.6458 68.1172 44.8464 68.7578 45.0234 69.4297C45.1849 68.7839 45.3776 68.1536 45.6016 67.5391L47.375 62.7031H48.7812L45.625 71.1406C45.2865 72.0521 45.0234 72.6797 44.8359 73.0234C44.5859 73.487 44.2995 73.8255 43.9766 74.0391C43.6536 74.2578 43.2682 74.3672 42.8203 74.3672C42.5495 74.3672 42.2474 74.3099 41.9141 74.1953ZM49.2188 62.7031H55.9609V63.8672H53.2891V71H51.8906V63.8672H49.2188V62.7031ZM62.5312 67.9609L63.9141 68.1406C63.763 69.0938 63.375 69.8411 62.75 70.3828C62.1302 70.9193 61.3672 71.1875 60.4609 71.1875C59.3255 71.1875 58.4115 70.8177 57.7188 70.0781C57.0312 69.3333 56.6875 68.2682 56.6875 66.8828C56.6875 65.987 56.8359 65.2031 57.1328 64.5312C57.4297 63.8594 57.8802 63.3568 58.4844 63.0234C59.0938 62.6849 59.7552 62.5156 60.4688 62.5156C61.3698 62.5156 62.1068 62.7448 62.6797 63.2031C63.2526 63.6562 63.6198 64.3021 63.7812 65.1406L62.4141 65.3516C62.2839 64.7943 62.0521 64.375 61.7188 64.0938C61.3906 63.8125 60.9922 63.6719 60.5234 63.6719C59.8151 63.6719 59.2396 63.9271 58.7969 64.4375C58.3542 64.9427 58.1328 65.7448 58.1328 66.8438C58.1328 67.9583 58.3464 68.7682 58.7734 69.2734C59.2005 69.7786 59.7578 70.0312 60.4453 70.0312C60.9974 70.0312 61.4583 69.862 61.8281 69.5234C62.1979 69.1849 62.4323 68.6641 62.5312 67.9609ZM65.1094 62.7031H66.5156V66.2891C66.9635 66.2891 67.276 66.2031 67.4531 66.0312C67.6354 65.8594 67.901 65.3594 68.25 64.5312C68.526 63.875 68.75 63.4427 68.9219 63.2344C69.0938 63.026 69.2917 62.8854 69.5156 62.8125C69.7396 62.7396 70.099 62.7031 70.5938 62.7031H70.875V63.8672L70.4844 63.8594C70.1146 63.8594 69.8776 63.9141 69.7734 64.0234C69.6641 64.138 69.4974 64.4792 69.2734 65.0469C69.0599 65.5885 68.8646 65.9635 68.6875 66.1719C68.5104 66.3802 68.237 66.5703 67.8672 66.7422C68.4714 66.9036 69.0651 67.4661 69.6484 68.4297L71.1875 71H69.6406L68.1406 68.4297C67.8333 67.9141 67.5651 67.5755 67.3359 67.4141C67.1068 67.2474 66.8333 67.1641 66.5156 67.1641V71H65.1094V62.7031ZM72.4844 71V69.3984H74.0859V71C74.0859 71.5885 73.9818 72.0625 73.7734 72.4219C73.5651 72.7865 73.2344 73.0677 72.7812 73.2656L72.3906 72.6641C72.6875 72.5339 72.9062 72.3411 73.0469 72.0859C73.1875 71.8359 73.2656 71.474 73.2812 71H72.4844ZM80.9609 74.1953L80.8047 72.875C81.112 72.9583 81.3802 73 81.6094 73C81.9219 73 82.1719 72.9479 82.3594 72.8438C82.5469 72.7396 82.7005 72.5938 82.8203 72.4062C82.9089 72.2656 83.0521 71.9167 83.25 71.3594C83.276 71.2812 83.3177 71.1667 83.375 71.0156L80.2266 62.7031H81.7422L83.4688 67.5078C83.6927 68.1172 83.8932 68.7578 84.0703 69.4297C84.2318 68.7839 84.4245 68.1536 84.6484 67.5391L86.4219 62.7031H87.8281L84.6719 71.1406C84.3333 72.0521 84.0703 72.6797 83.8828 73.0234C83.6328 73.487 83.3464 73.8255 83.0234 74.0391C82.7005 74.2578 82.3151 74.3672 81.8672 74.3672C81.5964 74.3672 81.2943 74.3099 80.9609 74.1953ZM89.3516 62.7031H95.8828V71H94.4844V63.8672H90.7578V68C90.7578 68.9635 90.7266 69.599 90.6641 69.9062C90.6016 70.2135 90.4297 70.4818 90.1484 70.7109C89.8672 70.9401 89.4609 71.0547 88.9297 71.0547C88.6016 71.0547 88.224 71.0339 87.7969 70.9922V69.8203H88.4141C88.7057 69.8203 88.9141 69.7917 89.0391 69.7344C89.1641 69.6719 89.2474 69.5755 89.2891 69.4453C89.3307 69.3151 89.3516 68.8906 89.3516 68.1719V62.7031ZM98.4062 71V69.3984H100.008V71H98.4062ZM108.133 59.5469H115.102V69.6484H116.133V73.6719H114.781V71H107.211V73.6719H105.859V69.6484H106.75C107.672 68.2578 108.133 65.4479 108.133 61.2188V59.5469ZM113.586 60.8984H109.594V61.4844C109.594 62.4583 109.505 63.7917 109.328 65.4844C109.156 67.1719 108.815 68.5599 108.305 69.6484H113.586V60.8984ZM120.125 67.25V66.1484C120.719 66.1432 121.122 66.1198 121.336 66.0781C121.555 66.0365 121.76 65.9115 121.953 65.7031C122.146 65.4948 122.242 65.2344 122.242 64.9219C122.242 64.5417 122.115 64.2396 121.859 64.0156C121.609 63.7865 121.284 63.6719 120.883 63.6719C120.091 63.6719 119.536 64.138 119.219 65.0703L117.883 64.8516C118.299 63.2943 119.305 62.5156 120.898 62.5156C121.784 62.5156 122.477 62.7578 122.977 63.2422C123.482 63.7266 123.734 64.3047 123.734 64.9766C123.734 65.6536 123.406 66.1927 122.75 66.5938C123.167 66.8177 123.479 67.1042 123.688 67.4531C123.896 67.7969 124 68.2057 124 68.6797C124 69.4245 123.729 70.0286 123.188 70.4922C122.646 70.9557 121.888 71.1875 120.914 71.1875C119.023 71.1875 117.927 70.3464 117.625 68.6641L118.945 68.3828C119.065 68.9141 119.307 69.3255 119.672 69.6172C120.042 69.9089 120.464 70.0547 120.938 70.0547C121.411 70.0547 121.805 69.9219 122.117 69.6562C122.435 69.3854 122.594 69.0417 122.594 68.625C122.594 68.3021 122.495 68.0208 122.297 67.7812C122.099 67.5417 121.888 67.3932 121.664 67.3359C121.44 67.2734 121.034 67.2422 120.445 67.2422C120.398 67.2422 120.292 67.2448 120.125 67.25ZM131.125 68.3281L132.578 68.5078C132.349 69.3568 131.924 70.0156 131.305 70.4844C130.685 70.9531 129.893 71.1875 128.93 71.1875C127.716 71.1875 126.753 70.8151 126.039 70.0703C125.331 69.3203 124.977 68.2708 124.977 66.9219C124.977 65.526 125.336 64.4427 126.055 63.6719C126.773 62.901 127.706 62.5156 128.852 62.5156C129.961 62.5156 130.867 62.8932 131.57 63.6484C132.273 64.4036 132.625 65.4661 132.625 66.8359C132.625 66.9193 132.622 67.0443 132.617 67.2109H126.43C126.482 68.1224 126.74 68.8203 127.203 69.3047C127.667 69.7891 128.245 70.0312 128.938 70.0312C129.453 70.0312 129.893 69.8958 130.258 69.625C130.622 69.3542 130.911 68.9219 131.125 68.3281ZM126.508 66.0547H131.141C131.078 65.3568 130.901 64.8333 130.609 64.4844C130.161 63.9427 129.581 63.6719 128.867 63.6719C128.221 63.6719 127.677 63.888 127.234 64.3203C126.797 64.7526 126.555 65.3307 126.508 66.0547ZM134.352 74.1797V62.7031H135.633V63.7812C135.935 63.3594 136.276 63.0443 136.656 62.8359C137.036 62.6224 137.497 62.5156 138.039 62.5156C138.747 62.5156 139.372 62.6979 139.914 63.0625C140.456 63.4271 140.865 63.9427 141.141 64.6094C141.417 65.2708 141.555 65.9974 141.555 66.7891C141.555 67.638 141.401 68.4036 141.094 69.0859C140.792 69.763 140.349 70.2839 139.766 70.6484C139.188 71.0078 138.578 71.1875 137.938 71.1875C137.469 71.1875 137.047 71.0885 136.672 70.8906C136.302 70.6927 135.997 70.4427 135.758 70.1406V74.1797H134.352ZM135.625 66.8984C135.625 67.9661 135.841 68.7552 136.273 69.2656C136.706 69.776 137.229 70.0312 137.844 70.0312C138.469 70.0312 139.003 69.7682 139.445 69.2422C139.893 68.7109 140.117 67.8906 140.117 66.7812C140.117 65.724 139.898 64.9323 139.461 64.4062C139.029 63.8802 138.51 63.6172 137.906 63.6172C137.307 63.6172 136.776 63.8984 136.312 64.4609C135.854 65.0182 135.625 65.8307 135.625 66.8984ZM148.273 62.7031V66.2891C148.721 66.2891 149.036 66.2031 149.219 66.0312C149.401 65.8594 149.667 65.3594 150.016 64.5312C150.344 63.7448 150.638 63.2422 150.898 63.0234C151.154 62.8099 151.56 62.7031 152.117 62.7031H152.633V63.8672L152.25 63.8594C151.875 63.8594 151.635 63.9141 151.531 64.0234C151.422 64.138 151.255 64.4792 151.031 65.0469C150.823 65.5885 150.63 65.9635 150.453 66.1719C150.276 66.3802 150 66.5703 149.625 66.7422C150.234 66.9036 150.828 67.4661 151.406 68.4297L152.953 71H151.406L149.898 68.4297C149.591 67.9089 149.323 67.5677 149.094 67.4062C148.865 67.2448 148.591 67.1641 148.273 67.1641V71H146.836V67.1641C146.523 67.1641 146.253 67.2448 146.023 67.4062C145.794 67.5625 145.526 67.9036 145.219 68.4297L143.711 71H142.164L143.703 68.4297C144.286 67.4661 144.883 66.9036 145.492 66.7422C145.076 66.5495 144.784 66.3411 144.617 66.1172C144.451 65.888 144.201 65.3464 143.867 64.4922C143.753 64.2057 143.63 64.0286 143.5 63.9609C143.365 63.8932 143.164 63.8594 142.898 63.8594C142.831 63.8594 142.693 63.862 142.484 63.8672V62.7031H142.68C143.221 62.7031 143.602 62.737 143.82 62.8047C144.044 62.8672 144.242 63.0052 144.414 63.2188C144.591 63.4271 144.82 63.8646 145.102 64.5312C145.445 65.349 145.706 65.8464 145.883 66.0234C146.065 66.2005 146.383 66.2891 146.836 66.2891V62.7031H148.273ZM153.961 62.7031H155.367V69.0312L159.266 62.7031H160.781V71H159.375V64.7109L155.477 71H153.961V62.7031ZM162.906 62.7031H164.312V66.1562H168.211V62.7031H169.617V71H168.211V67.3203H164.312V71H162.906V62.7031ZM177.156 67.9609L178.539 68.1406C178.388 69.0938 178 69.8411 177.375 70.3828C176.755 70.9193 175.992 71.1875 175.086 71.1875C173.951 71.1875 173.036 70.8177 172.344 70.0781C171.656 69.3333 171.312 68.2682 171.312 66.8828C171.312 65.987 171.461 65.2031 171.758 64.5312C172.055 63.8594 172.505 63.3568 173.109 63.0234C173.719 62.6849 174.38 62.5156 175.094 62.5156C175.995 62.5156 176.732 62.7448 177.305 63.2031C177.878 63.6562 178.245 64.3021 178.406 65.1406L177.039 65.3516C176.909 64.7943 176.677 64.375 176.344 64.0938C176.016 63.8125 175.617 63.6719 175.148 63.6719C174.44 63.6719 173.865 63.9271 173.422 64.4375C172.979 64.9427 172.758 65.7448 172.758 66.8438C172.758 67.9583 172.971 68.7682 173.398 69.2734C173.826 69.7786 174.383 70.0312 175.07 70.0312C175.622 70.0312 176.083 69.862 176.453 69.5234C176.823 69.1849 177.057 68.6641 177.156 67.9609ZM179.734 62.7031H181.141V66.2891C181.589 66.2891 181.901 66.2031 182.078 66.0312C182.26 65.8594 182.526 65.3594 182.875 64.5312C183.151 63.875 183.375 63.4427 183.547 63.2344C183.719 63.026 183.917 62.8854 184.141 62.8125C184.365 62.7396 184.724 62.7031 185.219 62.7031H185.5V63.8672L185.109 63.8594C184.74 63.8594 184.503 63.9141 184.398 64.0234C184.289 64.138 184.122 64.4792 183.898 65.0469C183.685 65.5885 183.49 65.9635 183.312 66.1719C183.135 66.3802 182.862 66.5703 182.492 66.7422C183.096 66.9036 183.69 67.4661 184.273 68.4297L185.812 71H184.266L182.766 68.4297C182.458 67.9141 182.19 67.5755 181.961 67.4141C181.732 67.2474 181.458 67.1641 181.141 67.1641V71H179.734V62.7031ZM186.406 66.8516C186.406 65.3151 186.833 64.1771 187.688 63.4375C188.401 62.8229 189.271 62.5156 190.297 62.5156C191.438 62.5156 192.37 62.8906 193.094 63.6406C193.818 64.3854 194.18 65.4167 194.18 66.7344C194.18 67.8021 194.018 68.6432 193.695 69.2578C193.378 69.8672 192.911 70.3411 192.297 70.6797C191.688 71.0182 191.021 71.1875 190.297 71.1875C189.135 71.1875 188.195 70.8151 187.477 70.0703C186.763 69.3255 186.406 68.2526 186.406 66.8516ZM187.852 66.8516C187.852 67.9141 188.083 68.7109 188.547 69.2422C189.01 69.7682 189.594 70.0312 190.297 70.0312C190.995 70.0312 191.576 69.7656 192.039 69.2344C192.503 68.7031 192.734 67.8932 192.734 66.8047C192.734 65.7786 192.5 65.0026 192.031 64.4766C191.568 63.9453 190.99 63.6797 190.297 63.6797C189.594 63.6797 189.01 63.9427 188.547 64.4688C188.083 64.9948 187.852 65.7891 187.852 66.8516ZM195.844 62.7031H200.617V63.8672H197.25V71H195.844V62.7031ZM200.797 66.8516C200.797 65.3151 201.224 64.1771 202.078 63.4375C202.792 62.8229 203.661 62.5156 204.688 62.5156C205.828 62.5156 206.76 62.8906 207.484 63.6406C208.208 64.3854 208.57 65.4167 208.57 66.7344C208.57 67.8021 208.409 68.6432 208.086 69.2578C207.768 69.8672 207.302 70.3411 206.688 70.6797C206.078 71.0182 205.411 71.1875 204.688 71.1875C203.526 71.1875 202.586 70.8151 201.867 70.0703C201.154 69.3255 200.797 68.2526 200.797 66.8516ZM202.242 66.8516C202.242 67.9141 202.474 68.7109 202.938 69.2422C203.401 69.7682 203.984 70.0312 204.688 70.0312C205.385 70.0312 205.966 69.7656 206.43 69.2344C206.893 68.7031 207.125 67.8932 207.125 66.8047C207.125 65.7786 206.891 65.0026 206.422 64.4766C205.958 63.9453 205.38 63.6797 204.688 63.6797C203.984 63.6797 203.401 63.9427 202.938 64.4688C202.474 64.9948 202.242 65.7891 202.242 66.8516ZM210.594 71V69.3984H212.195V71C212.195 71.5885 212.091 72.0625 211.883 72.4219C211.674 72.7865 211.344 73.0677 210.891 73.2656L210.5 72.6641C210.797 72.5339 211.016 72.3411 211.156 72.0859C211.297 71.8359 211.375 71.474 211.391 71H210.594ZM34.3984 79.0469V77.6953H41.8125V78.7891C41.0833 79.5651 40.3594 80.5964 39.6406 81.8828C38.9271 83.1693 38.375 84.4922 37.9844 85.8516C37.7031 86.8099 37.5234 87.8594 37.4453 89H36C36.0156 88.099 36.1927 87.0104 36.5312 85.7344C36.8698 84.4583 37.3542 83.2292 37.9844 82.0469C38.6198 80.8594 39.2943 79.8594 40.0078 79.0469H34.3984ZM50.5078 80.3516L49.1094 80.4609C48.9844 79.9089 48.8073 79.5078 48.5781 79.2578C48.1979 78.8568 47.7292 78.6562 47.1719 78.6562C46.724 78.6562 46.3307 78.7812 45.9922 79.0312C45.5495 79.3542 45.2005 79.8255 44.9453 80.4453C44.6901 81.0651 44.5573 81.9479 44.5469 83.0938C44.8854 82.5781 45.2995 82.1953 45.7891 81.9453C46.2786 81.6953 46.7917 81.5703 47.3281 81.5703C48.2656 81.5703 49.0625 81.9167 49.7188 82.6094C50.3802 83.2969 50.7109 84.1875 50.7109 85.2812C50.7109 86 50.5547 86.6693 50.2422 87.2891C49.9349 87.9036 49.5104 88.375 48.9688 88.7031C48.4271 89.0312 47.8125 89.1953 47.125 89.1953C45.9531 89.1953 44.9974 88.7656 44.2578 87.9062C43.5182 87.0417 43.1484 85.6198 43.1484 83.6406C43.1484 81.4271 43.5573 79.8177 44.375 78.8125C45.0885 77.9375 46.0495 77.5 47.2578 77.5C48.1589 77.5 48.8958 77.7526 49.4688 78.2578C50.0469 78.763 50.3932 79.4609 50.5078 80.3516ZM44.7656 85.2891C44.7656 85.7734 44.8672 86.237 45.0703 86.6797C45.2786 87.1224 45.5677 87.4609 45.9375 87.6953C46.3073 87.9245 46.6953 88.0391 47.1016 88.0391C47.6953 88.0391 48.2057 87.7995 48.6328 87.3203C49.0599 86.8411 49.2734 86.1901 49.2734 85.3672C49.2734 84.5755 49.0625 83.9531 48.6406 83.5C48.2188 83.0417 47.6875 82.8125 47.0469 82.8125C46.4115 82.8125 45.8724 83.0417 45.4297 83.5C44.987 83.9531 44.7656 84.5495 44.7656 85.2891ZM52.875 89V87.3984H54.4766V89C54.4766 89.5885 54.3724 90.0625 54.1641 90.4219C53.9557 90.7865 53.625 91.0677 53.1719 91.2656L52.7812 90.6641C53.0781 90.5339 53.2969 90.3411 53.4375 90.0859C53.5781 89.8359 53.6562 89.474 53.6719 89H52.875ZM67.4922 77.2734L68.7344 77.2891C68.6771 77.8464 68.5521 78.2344 68.3594 78.4531C68.1719 78.6719 67.9271 78.8125 67.625 78.875C67.3281 78.9375 66.7422 78.9688 65.8672 78.9688C64.7057 78.9688 63.9141 79.0807 63.4922 79.3047C63.0703 79.5286 62.7656 79.888 62.5781 80.3828C62.3958 80.8724 62.2943 81.5052 62.2734 82.2812C62.6276 81.7552 63.0417 81.362 63.5156 81.1016C63.9896 80.8359 64.5234 80.7031 65.1172 80.7031C66.2057 80.7031 67.1068 81.0781 67.8203 81.8281C68.5339 82.5729 68.8906 83.5833 68.8906 84.8594C68.8906 85.8281 68.7109 86.6224 68.3516 87.2422C67.9922 87.862 67.5651 88.3411 67.0703 88.6797C66.5807 89.0182 65.9115 89.1875 65.0625 89.1875C64.0781 89.1875 63.3125 88.9635 62.7656 88.5156C62.2188 88.0625 61.7995 87.4844 61.5078 86.7812C61.2161 86.0781 61.0703 84.8542 61.0703 83.1094C61.0703 80.9167 61.4401 79.4401 62.1797 78.6797C62.9245 77.9193 64.0677 77.5391 65.6094 77.5391C66.5677 77.5391 67.112 77.5234 67.2422 77.4922C67.3724 77.4609 67.4557 77.388 67.4922 77.2734ZM67.4219 84.8203C67.4219 83.9557 67.2161 83.2474 66.8047 82.6953C66.3984 82.1432 65.8229 81.8672 65.0781 81.8672C64.3021 81.8672 63.7031 82.1589 63.2812 82.7422C62.8594 83.3255 62.6484 84.1042 62.6484 85.0781C62.6484 86.0417 62.8802 86.7786 63.3438 87.2891C63.8125 87.7995 64.388 88.0547 65.0703 88.0547C65.7682 88.0547 66.3333 87.7604 66.7656 87.1719C67.2031 86.5781 67.4219 85.7943 67.4219 84.8203ZM70.5547 80.7031H77.0859V89H75.6875V81.8672H71.9609V86C71.9609 86.9635 71.9297 87.599 71.8672 87.9062C71.8047 88.2135 71.6328 88.4818 71.3516 88.7109C71.0703 88.9401 70.6641 89.0547 70.1328 89.0547C69.8047 89.0547 69.4271 89.0339 69 88.9922V87.8203H69.6172C69.9089 87.8203 70.1172 87.7917 70.2422 87.7344C70.3672 87.6719 70.4505 87.5755 70.4922 87.4453C70.5339 87.3151 70.5547 86.8906 70.5547 86.1719V80.7031ZM78.875 84.8516C78.875 83.3151 79.3021 82.1771 80.1562 81.4375C80.8698 80.8229 81.7396 80.5156 82.7656 80.5156C83.9062 80.5156 84.8385 80.8906 85.5625 81.6406C86.2865 82.3854 86.6484 83.4167 86.6484 84.7344C86.6484 85.8021 86.487 86.6432 86.1641 87.2578C85.8464 87.8672 85.3802 88.3411 84.7656 88.6797C84.1562 89.0182 83.4896 89.1875 82.7656 89.1875C81.6042 89.1875 80.6641 88.8151 79.9453 88.0703C79.2318 87.3255 78.875 86.2526 78.875 84.8516ZM80.3203 84.8516C80.3203 85.9141 80.5521 86.7109 81.0156 87.2422C81.4792 87.7682 82.0625 88.0312 82.7656 88.0312C83.4635 88.0312 84.0443 87.7656 84.5078 87.2344C84.9714 86.7031 85.2031 85.8932 85.2031 84.8047C85.2031 83.7786 84.9688 83.0026 84.5 82.4766C84.0365 81.9453 83.4583 81.6797 82.7656 81.6797C82.0625 81.6797 81.4792 81.9427 81.0156 82.4688C80.5521 82.9948 80.3203 83.7891 80.3203 84.8516ZM88.2969 80.7031H89.7031V84.2891C90.151 84.2891 90.4635 84.2031 90.6406 84.0312C90.8229 83.8594 91.0885 83.3594 91.4375 82.5312C91.7135 81.875 91.9375 81.4427 92.1094 81.2344C92.2812 81.026 92.4792 80.8854 92.7031 80.8125C92.9271 80.7396 93.2865 80.7031 93.7812 80.7031H94.0625V81.8672L93.6719 81.8594C93.3021 81.8594 93.0651 81.9141 92.9609 82.0234C92.8516 82.138 92.6849 82.4792 92.4609 83.0469C92.2474 83.5885 92.0521 83.9635 91.875 84.1719C91.6979 84.3802 91.4245 84.5703 91.0547 84.7422C91.6589 84.9036 92.2526 85.4661 92.8359 86.4297L94.375 89H92.8281L91.3281 86.4297C91.0208 85.9141 90.7526 85.5755 90.5234 85.4141C90.2943 85.2474 90.0208 85.1641 89.7031 85.1641V89H88.2969V80.7031ZM108.109 84.9844L109.625 85.3672C109.307 86.612 108.734 87.5625 107.906 88.2188C107.083 88.8698 106.076 89.1953 104.883 89.1953C103.648 89.1953 102.643 88.9453 101.867 88.4453C101.096 87.9401 100.508 87.2109 100.102 86.2578C99.7005 85.3047 99.5 84.2812 99.5 83.1875C99.5 81.9948 99.7266 80.9557 100.18 80.0703C100.638 79.1797 101.286 78.5052 102.125 78.0469C102.969 77.5833 103.896 77.3516 104.906 77.3516C106.052 77.3516 107.016 77.6432 107.797 78.2266C108.578 78.8099 109.122 79.6302 109.43 80.6875L107.938 81.0391C107.672 80.2057 107.286 79.599 106.781 79.2188C106.276 78.8385 105.641 78.6484 104.875 78.6484C103.995 78.6484 103.258 78.8594 102.664 79.2812C102.076 79.7031 101.661 80.2708 101.422 80.9844C101.182 81.6927 101.062 82.4245 101.062 83.1797C101.062 84.1536 101.203 85.0052 101.484 85.7344C101.771 86.4583 102.214 87 102.812 87.3594C103.411 87.7188 104.06 87.8984 104.758 87.8984C105.607 87.8984 106.326 87.6536 106.914 87.1641C107.503 86.6745 107.901 85.9479 108.109 84.9844ZM111.688 89V87.3984H113.289V89C113.289 89.5885 113.185 90.0625 112.977 90.4219C112.768 90.7865 112.438 91.0677 111.984 91.2656L111.594 90.6641C111.891 90.5339 112.109 90.3411 112.25 90.0859C112.391 89.8359 112.469 89.474 112.484 89H111.688ZM119.703 84.8516C119.703 83.3151 120.13 82.1771 120.984 81.4375C121.698 80.8229 122.568 80.5156 123.594 80.5156C124.734 80.5156 125.667 80.8906 126.391 81.6406C127.115 82.3854 127.477 83.4167 127.477 84.7344C127.477 85.8021 127.315 86.6432 126.992 87.2578C126.674 87.8672 126.208 88.3411 125.594 88.6797C124.984 89.0182 124.318 89.1875 123.594 89.1875C122.432 89.1875 121.492 88.8151 120.773 88.0703C120.06 87.3255 119.703 86.2526 119.703 84.8516ZM121.148 84.8516C121.148 85.9141 121.38 86.7109 121.844 87.2422C122.307 87.7682 122.891 88.0312 123.594 88.0312C124.292 88.0312 124.872 87.7656 125.336 87.2344C125.799 86.7031 126.031 85.8932 126.031 84.8047C126.031 83.7786 125.797 83.0026 125.328 82.4766C124.865 81.9453 124.286 81.6797 123.594 81.6797C122.891 81.6797 122.307 81.9427 121.844 82.4688C121.38 82.9948 121.148 83.7891 121.148 84.8516ZM133.961 77.5469H135.367V81.5078C135.659 81.1745 135.979 80.9271 136.328 80.7656C136.677 80.599 137.052 80.5156 137.453 80.5156C138.438 80.5156 139.216 80.9271 139.789 81.75C140.367 82.5677 140.656 83.599 140.656 84.8438C140.656 86.1406 140.346 87.1901 139.727 87.9922C139.107 88.7891 138.336 89.1875 137.414 89.1875C137.112 89.1875 136.805 89.1406 136.492 89.0469C136.18 88.9531 135.805 88.6979 135.367 88.2812V92.1797H133.961V88.2812C133.68 88.5833 133.367 88.8099 133.023 88.9609C132.685 89.112 132.318 89.1875 131.922 89.1875C131.052 89.1875 130.292 88.8073 129.641 88.0469C128.99 87.2812 128.664 86.1875 128.664 84.7656C128.664 83.5625 128.958 82.5547 129.547 81.7422C130.135 80.9245 130.927 80.5156 131.922 80.5156C132.339 80.5156 132.716 80.599 133.055 80.7656C133.393 80.9271 133.695 81.1745 133.961 81.5078V77.5469ZM135.359 84.8828C135.359 86.1328 135.531 86.974 135.875 87.4062C136.219 87.8333 136.648 88.0469 137.164 88.0469C137.737 88.0469 138.224 87.7839 138.625 87.2578C139.031 86.7266 139.234 85.9036 139.234 84.7891C139.234 83.737 139.047 82.9531 138.672 82.4375C138.302 81.9219 137.826 81.6641 137.242 81.6641C136.617 81.6641 136.146 81.9323 135.828 82.4688C135.516 83.0052 135.359 83.8099 135.359 84.8828ZM130.094 84.7266C130.094 85.8984 130.289 86.7422 130.68 87.2578C131.076 87.7734 131.565 88.0312 132.148 88.0312C132.758 88.0312 133.214 87.776 133.516 87.2656C133.818 86.75 133.969 85.9792 133.969 84.9531C133.969 83.8594 133.81 83.0391 133.492 82.4922C133.174 81.9453 132.695 81.6719 132.055 81.6719C131.477 81.6719 131.005 81.9401 130.641 82.4766C130.276 83.0078 130.094 83.7578 130.094 84.7266ZM142.305 80.7031H143.711V87.0312L147.609 80.7031H149.125V89H147.719V82.7109L143.82 89H142.305V80.7031ZM156.656 85.9609L158.039 86.1406C157.888 87.0938 157.5 87.8411 156.875 88.3828C156.255 88.9193 155.492 89.1875 154.586 89.1875C153.451 89.1875 152.536 88.8177 151.844 88.0781C151.156 87.3333 150.812 86.2682 150.812 84.8828C150.812 83.987 150.961 83.2031 151.258 82.5312C151.555 81.8594 152.005 81.3568 152.609 81.0234C153.219 80.6849 153.88 80.5156 154.594 80.5156C155.495 80.5156 156.232 80.7448 156.805 81.2031C157.378 81.6562 157.745 82.3021 157.906 83.1406L156.539 83.3516C156.409 82.7943 156.177 82.375 155.844 82.0938C155.516 81.8125 155.117 81.6719 154.648 81.6719C153.94 81.6719 153.365 81.9271 152.922 82.4375C152.479 82.9427 152.258 83.7448 152.258 84.8438C152.258 85.9583 152.471 86.7682 152.898 87.2734C153.326 87.7786 153.883 88.0312 154.57 88.0312C155.122 88.0312 155.583 87.862 155.953 87.5234C156.323 87.1849 156.557 86.6641 156.656 85.9609ZM170.695 87.6484V89H163.125C163.115 88.6615 163.169 88.3359 163.289 88.0234C163.482 87.5078 163.789 87 164.211 86.5C164.638 86 165.253 85.4219 166.055 84.7656C167.299 83.7448 168.141 82.9375 168.578 82.3438C169.016 81.7448 169.234 81.1797 169.234 80.6484C169.234 80.0911 169.034 79.6224 168.633 79.2422C168.237 78.8568 167.719 78.6641 167.078 78.6641C166.401 78.6641 165.859 78.8672 165.453 79.2734C165.047 79.6797 164.841 80.2422 164.836 80.9609L163.391 80.8125C163.49 79.7344 163.862 78.9141 164.508 78.3516C165.154 77.7839 166.021 77.5 167.109 77.5C168.208 77.5 169.078 77.8047 169.719 78.4141C170.359 79.0234 170.68 79.7786 170.68 80.6797C170.68 81.138 170.586 81.5885 170.398 82.0312C170.211 82.474 169.898 82.9401 169.461 83.4297C169.029 83.9193 168.307 84.5911 167.297 85.4453C166.453 86.1536 165.911 86.6354 165.672 86.8906C165.432 87.1406 165.234 87.3932 165.078 87.6484H170.695ZM172.211 83.3516C172.211 81.9974 172.349 80.9089 172.625 80.0859C172.906 79.2578 173.32 78.6198 173.867 78.1719C174.419 77.724 175.112 77.5 175.945 77.5C176.56 77.5 177.099 77.625 177.562 77.875C178.026 78.1198 178.409 78.4766 178.711 78.9453C179.013 79.4089 179.25 79.9766 179.422 80.6484C179.594 81.3151 179.68 82.2161 179.68 83.3516C179.68 84.6953 179.542 85.7812 179.266 86.6094C178.99 87.4323 178.576 88.0703 178.023 88.5234C177.477 88.9714 176.784 89.1953 175.945 89.1953C174.841 89.1953 173.974 88.7995 173.344 88.0078C172.589 87.0547 172.211 85.5026 172.211 83.3516ZM173.656 83.3516C173.656 85.2318 173.875 86.4844 174.312 87.1094C174.755 87.7292 175.299 88.0391 175.945 88.0391C176.591 88.0391 177.133 87.7266 177.57 87.1016C178.013 86.4766 178.234 85.2266 178.234 83.3516C178.234 81.4661 178.013 80.2135 177.57 79.5938C177.133 78.974 176.586 78.6641 175.93 78.6641C175.284 78.6641 174.768 78.9375 174.383 79.4844C173.898 80.1823 173.656 81.4714 173.656 83.3516ZM181.125 85.9766L182.531 85.7891C182.693 86.5859 182.966 87.1615 183.352 87.5156C183.742 87.8646 184.216 88.0391 184.773 88.0391C185.435 88.0391 185.992 87.8099 186.445 87.3516C186.904 86.8932 187.133 86.3255 187.133 85.6484C187.133 85.0026 186.922 84.4714 186.5 84.0547C186.078 83.6328 185.542 83.4219 184.891 83.4219C184.625 83.4219 184.294 83.474 183.898 83.5781L184.055 82.3438C184.148 82.3542 184.224 82.3594 184.281 82.3594C184.88 82.3594 185.419 82.2031 185.898 81.8906C186.378 81.5781 186.617 81.0964 186.617 80.4453C186.617 79.9297 186.443 79.5026 186.094 79.1641C185.745 78.8255 185.294 78.6562 184.742 78.6562C184.195 78.6562 183.74 78.8281 183.375 79.1719C183.01 79.5156 182.776 80.0312 182.672 80.7188L181.266 80.4688C181.438 79.526 181.828 78.7969 182.438 78.2812C183.047 77.7604 183.805 77.5 184.711 77.5C185.336 77.5 185.911 77.6354 186.438 77.9062C186.964 78.1719 187.365 78.5365 187.641 79C187.922 79.4635 188.062 79.9557 188.062 80.4766C188.062 80.9714 187.93 81.4219 187.664 81.8281C187.398 82.2344 187.005 82.5573 186.484 82.7969C187.161 82.9531 187.688 83.2786 188.062 83.7734C188.438 84.263 188.625 84.8776 188.625 85.6172C188.625 86.6172 188.26 87.4661 187.531 88.1641C186.802 88.8568 185.88 89.2031 184.766 89.2031C183.76 89.2031 182.924 88.9036 182.258 88.3047C181.596 87.7057 181.219 86.9297 181.125 85.9766Z" fill="white"/>
<path d="M111.5 28.5833C116.004 28.5833 119.667 24.9206 119.667 20.4167C119.667 15.9127 116.004 12.25 111.5 12.25C106.996 12.25 103.333 15.9127 103.333 20.4167C103.333 24.9206 106.996 28.5833 111.5 28.5833ZM111.5 16.3333C113.752 16.3333 115.583 18.1647 115.583 20.4167C115.583 22.6686 113.752 24.5 111.5 24.5C109.248 24.5 107.417 22.6686 107.417 20.4167C107.417 18.1647 109.248 16.3333 111.5 16.3333Z" fill="white"/>
<path d="M110.316 44.5376C110.661 44.7843 111.075 44.917 111.5 44.917C111.925 44.917 112.339 44.7843 112.684 44.5376C113.305 44.0986 127.893 33.5657 127.833 20.4173C127.833 11.4115 120.506 4.08398 111.5 4.08398C102.494 4.08398 95.1667 11.4115 95.1667 20.4071C95.1075 33.5657 109.695 44.0986 110.316 44.5376ZM111.5 8.16732C118.256 8.16732 123.75 13.6614 123.75 20.4275C123.793 29.4884 114.791 37.6245 111.5 40.2929C108.211 37.6224 99.2071 29.4844 99.25 20.4173C99.25 13.6614 104.744 8.16732 111.5 8.16732Z" fill="white"/>
</svg>
