<svg width="129" height="55" viewBox="0 0 129 55" fill="none" xmlns="http://www.w3.org/2000/svg">
<path d="M128.129 26.5648H120.766C120.789 25.5876 120.664 24.724 120.391 23.974C120.118 23.2126 119.709 22.5649 119.164 22.0308C118.629 21.4968 117.976 21.0934 117.203 20.8206C116.431 20.5365 115.561 20.3945 114.595 20.3945C112.732 20.3945 111.022 20.8604 109.465 21.7922C107.908 22.724 106.596 24.0762 105.527 25.8489C104.459 27.6103 103.721 29.7409 103.312 32.2408C102.914 34.6499 102.937 36.6669 103.38 38.2918C103.823 39.9168 104.607 41.144 105.732 41.9736C106.868 42.7917 108.283 43.2008 109.976 43.2008C111.022 43.2008 112.016 43.0701 112.959 42.8088C113.902 42.5361 114.76 42.1497 115.533 41.6497C116.317 41.1384 116.999 40.5191 117.578 39.7918C118.169 39.0645 118.629 38.2407 118.959 37.3203H126.374C125.908 38.9225 125.18 40.4679 124.192 41.9565C123.215 43.4451 122.004 44.7746 120.561 45.9451C119.118 47.1041 117.476 48.0246 115.635 48.7064C113.794 49.3882 111.777 49.7291 109.584 49.7291C106.414 49.7291 103.692 49.0018 101.42 47.5473C99.1583 46.0928 97.5276 43.9963 96.5277 41.2577C95.5277 38.5191 95.3402 35.218 95.9652 31.3545C96.5902 27.6159 97.8117 24.4456 99.6299 21.8433C101.459 19.2298 103.681 17.2468 106.295 15.8946C108.919 14.5424 111.726 13.8662 114.715 13.8662C116.794 13.8662 118.675 14.1503 120.357 14.7185C122.038 15.2867 123.47 16.1162 124.652 17.2071C125.845 18.2866 126.743 19.6104 127.345 21.1786C127.947 22.7467 128.209 24.5421 128.129 26.5648Z" fill="white"/>
<path d="M85.6998 49.2519L76.9557 34.3715H74.433L71.9615 49.2519H64.5809L70.3763 14.3435H77.7568L75.4386 28.2864H76.9216L90.8304 14.3435H100.018L83.7226 30.5364L94.853 49.2519H85.6998Z" fill="white"/>
<path d="M58.5299 49.2519H51.1494L55.9391 20.3775H50.9619C49.5415 20.3775 48.3256 20.5877 47.3143 21.0082C46.3143 21.4172 45.5132 22.0195 44.9109 22.8149C44.32 23.6104 43.928 24.5876 43.7348 25.7467C43.553 26.8944 43.6268 27.8546 43.9564 28.6273C44.2973 29.4 44.8995 29.9796 45.7632 30.3659C46.6381 30.7523 47.7802 30.9454 49.1892 30.9454H57.2004L56.2118 36.8771H46.9904C44.32 36.8771 42.1098 36.434 40.3599 35.5476C38.6213 34.6613 37.3883 33.3886 36.6611 31.7295C35.9338 30.0591 35.7577 28.0648 36.1327 25.7467C36.5304 23.4399 37.3599 21.4343 38.6213 19.7298C39.894 18.0139 41.5417 16.6901 43.5643 15.7583C45.587 14.8151 47.9165 14.3435 50.5528 14.3435H64.3082L58.5299 49.2519ZM42.3201 33.3658H50.2801L39.1497 49.2519H31.0192L42.3201 33.3658Z" fill="white"/>
<path fill-rule="evenodd" clip-rule="evenodd" d="M11.8903 21.7039C6.28668 34.045 11.9416 47.2087 22.4106 54.1434C12.548 51.1317 3.2851 43.9135 1.33245 34.2409C-1.69369 19.2508 10.0396 4.23495 27.5394 0.702164C36.1391 -1.03389 44.2457 1.0091 50.9165 4.62039C43.1151 2.24533 34.7901 2.97346 27.6391 6.20748C26.5164 5.165 25.0125 4.52754 23.3596 4.52754C19.8853 4.52754 17.0689 7.344 17.0689 10.8183C17.0689 11.7004 17.2504 12.5401 17.5782 13.302C15.2667 15.7231 13.3274 18.5389 11.8903 21.7039Z" fill="#008DD2"/>
<path fill-rule="evenodd" clip-rule="evenodd" d="M23.3595 17.109C26.8338 17.109 29.6502 14.2926 29.6502 10.8183C29.6502 10.1536 29.5472 9.51302 29.3561 8.91161C31.6779 7.85429 34.1924 7.08033 36.8547 6.64694C44.1811 5.45428 51.2637 7.06258 56.8383 10.6377C44.0445 5.75535 29.0474 12.1054 23.1323 25.0127C18.1132 35.9648 21.2246 48.165 29.9457 54.9259C21.6528 51.7528 15.3535 44.7886 13.9101 35.922C12.7177 28.5968 15.0801 21.452 19.8047 16.0091C20.816 16.703 22.0404 17.109 23.3595 17.109Z" fill="#009846"/>
<circle cx="23.3595" cy="10.8183" r="3.96366" transform="rotate(-0.650663 23.3595 10.8183)" fill="#C42526"/>
</svg>
