<?xml version="1.0" encoding="UTF-8"?>
<svg width="560" height="140" fill="none" version="1.1" viewBox="0 0 560 140" xmlns="http://www.w3.org/2000/svg">
 <g transform="translate(-300.29 -180.07)" stroke-width=".27901">
  <g fill="#fff">
   <path d="m742.12 247.69h-18.727c0.0586-2.4854-0.25949-4.6818-0.95423-6.5895-0.69195-1.9364-1.7327-3.5836-3.1194-4.9419-1.3588-1.3585-3.0217-2.3844-4.986-3.0781-1.9642-0.72237-4.1768-1.0837-6.6322-1.0837-4.7404 0-9.0903 1.185-13.05 3.5549-3.9592 2.3697-7.2973 5.809-10.014 10.318-2.7168 4.4796-4.5954 9.8986-5.6355 16.257-1.0117 6.1268-0.95395 11.257 0.17327 15.39 1.1272 4.133 3.1213 7.2544 5.9826 9.364 2.89 2.0809 6.4882 3.1213 10.794 3.1213 2.6587 0 5.1866-0.3323 7.5861-0.99719 2.3995-0.69336 4.5814-1.676 6.5457-2.9478 1.9949-1.3005 3.7276-2.8755 5.2036-4.7254 1.5011-1.8496 2.6729-3.945 3.51-6.2859h18.859c-1.1858 4.075-3.0357 8.0054-5.5496 11.792-2.486 3.7859-5.5635 7.1673-9.2326 10.144-3.6718 2.9481-7.8459 5.289-12.53 7.023-4.6818 1.7341-9.8101 2.601-15.388 2.601-8.0632 0-14.985-1.8496-20.765-5.549-5.7513-3.6992-9.8986-9.0314-12.442-15.997-2.5435-6.965-3.0203-15.361-1.4308-25.187 1.5895-9.5082 4.6966-17.572 9.3207-24.19 4.6528-6.6472 10.303-11.69 16.95-15.13 6.6762-3.4391 13.814-5.1587 21.414-5.1587 5.2901 0 10.072 0.72236 14.35 2.1674 4.2773 1.4453 7.9184 3.5549 10.926 6.3294 3.0329 2.7455 5.318 6.1126 6.8498 10.101 1.5318 3.9885 2.1958 8.5548 1.9922 13.699z"/>
   <path d="m634.21 305.39-22.239-37.846h-6.4162l-6.2859 37.846h-18.771l14.739-88.784h18.771l-5.8958 35.461h3.7717l35.375-35.461h23.366l-41.444 41.184 28.308 47.6z"/>
   <path d="m565.11 305.39h-18.771l12.182-73.437h-12.659c-3.6124 0-6.705 0.53459-9.2772 1.604-2.5432 1.0404-4.5806 2.5719-6.1124 4.5951-1.503 2.0231-2.5 4.5086-2.9913 7.4566-0.46233 2.9188-0.27455 5.361 0.56361 7.3263 0.86689 1.9651 2.3987 3.4391 4.5951 4.4218 2.2254 0.98268 5.1299 1.474 8.7139 1.474h20.375l-2.5142 15.086h-23.453c-6.7917 0-12.413-1.1272-16.864-3.3816-4.4218-2.2541-7.5576-5.491-9.4072-9.7105-1.8498-4.2485-2.2977-9.3207-1.344-15.216 1.0117-5.8671 3.1213-10.968 6.3294-15.303 3.2368-4.364 7.4273-7.7312 12.572-10.101 5.1444-2.3987 11.069-3.5982 17.774-3.5982h34.985zm-41.227-40.403h20.245l-28.308 40.403h-20.679z"/>
  </g>
  <path d="m446.49 235.32c-14.252 31.387 0.1303 64.867 26.757 82.505-25.084-7.6598-48.643-26.018-53.609-50.619-7.6965-38.125 22.145-76.315 66.653-85.3 21.872-4.4154 42.49 0.78065 59.456 9.9654-19.842-6.0406-41.015-4.1886-59.202 4.0366-2.8554-2.6514-6.6804-4.2726-10.884-4.2726-8.8361 0-15.999 7.1632-15.999 15.999 0 2.2434 0.46176 4.3792 1.2955 6.317-5.8788 6.1576-10.811 13.319-14.466 21.369z" clip-rule="evenodd" fill="#008dd2" fill-rule="evenodd"/>
  <path d="m475.66 223.64c8.8364 0 15.999-7.1634 15.999-16 0-1.6906-0.26227-3.3199-0.74803-4.8495 5.905-2.6891 12.3-4.6576 19.071-5.7598 18.633-3.0333 36.646 1.057 50.825 10.149-32.539-12.417-70.681 3.7333-85.725 36.561-12.765 27.855-4.8518 58.885 17.329 76.08-21.092-8.0702-37.113-25.783-40.784-48.334-3.0329-18.63 2.9754-36.802 14.992-50.645 2.5722 1.7648 5.686 2.7977 9.0412 2.7977z" clip-rule="evenodd" fill="#009846" fill-rule="evenodd"/>
  <circle transform="rotate(-.65066)" cx="473.27" cy="213.03" r="10.081" fill="#c42526"/>
 </g>
</svg>
