<svg width="1161" height="501" viewBox="0 0 1161 501" fill="none" xmlns="http://www.w3.org/2000/svg">
<path d="M1160.48 242.384H1093.36C1093.57 233.476 1092.43 225.604 1089.94 218.767C1087.46 211.827 1083.73 205.923 1078.76 201.055C1073.89 196.186 1067.93 192.509 1060.89 190.023C1053.85 187.434 1045.92 186.139 1037.12 186.139C1020.13 186.139 1004.54 190.386 990.349 198.88C976.159 207.373 964.195 219.7 954.458 235.859C944.721 251.914 937.988 271.336 934.26 294.124C930.634 316.083 930.841 334.469 934.881 349.281C938.921 364.094 946.068 375.281 956.323 382.842C966.681 390.3 979.577 394.029 995.011 394.029C1004.54 394.029 1013.6 392.838 1022.2 390.455C1030.8 387.97 1038.62 384.448 1045.66 379.89C1052.81 375.229 1059.02 369.584 1064.31 362.954C1069.69 356.325 1073.89 348.815 1076.89 340.425H1144.48C1140.23 355.03 1133.6 369.117 1124.59 382.687C1115.68 396.256 1104.65 408.375 1091.5 419.044C1078.34 429.61 1063.38 438 1046.59 444.215C1029.81 450.43 1011.43 453.537 991.437 453.537C962.538 453.537 937.73 446.908 917.013 433.649C896.4 420.391 881.536 401.28 872.421 376.316C863.305 351.353 861.596 321.262 867.293 286.044C872.99 251.966 884.126 223.066 900.699 199.346C917.375 175.522 937.626 157.447 961.45 145.12C985.378 132.794 1010.96 126.631 1038.2 126.631C1057.16 126.631 1074.3 129.22 1089.63 134.399C1104.96 139.579 1118.01 147.14 1128.79 157.084C1139.66 166.924 1147.85 178.992 1153.34 193.286C1158.83 207.581 1161.21 223.947 1160.48 242.384Z" fill="white"/>
<path d="M773.719 449.187L694.013 313.546H671.017L648.488 449.187H581.211L634.038 130.981H701.315L680.184 258.077H693.702L820.487 130.981H904.233L755.696 278.587L857.155 449.187H773.719Z" fill="white"/>
<path d="M526.053 449.187H458.777L502.437 185.984H457.067C444.12 185.984 433.036 187.9 423.817 191.733C414.702 195.462 407.4 200.951 401.91 208.202C396.523 215.453 392.95 224.361 391.189 234.927C389.532 245.388 390.205 254.141 393.209 261.185C396.316 268.228 401.806 273.511 409.678 277.033C417.654 280.555 428.064 282.316 440.909 282.316H513.934L504.923 336.386H420.865C396.523 336.386 376.377 332.346 360.425 324.266C344.577 316.187 333.338 304.586 326.709 289.463C320.079 274.236 318.474 256.057 321.892 234.927C325.518 213.899 333.079 195.617 344.577 180.08C356.178 164.439 371.197 152.371 389.635 143.877C408.073 135.28 429.307 130.981 453.338 130.981H578.725L526.053 449.187ZM378.293 304.379H450.852L349.393 449.187H275.28L378.293 304.379Z" fill="white"/>
<path fill-rule="evenodd" clip-rule="evenodd" d="M100.912 198.075C49.832 310.569 101.379 430.563 196.809 493.776C106.906 466.323 22.4712 400.526 4.67181 312.356C-22.9129 175.713 84.0413 38.8373 243.561 6.63431C321.951 -9.19065 395.847 9.43219 456.654 42.3507C385.54 20.701 309.653 27.3383 244.469 56.818C234.235 47.3154 220.526 41.5048 205.459 41.5048C173.79 41.5048 148.116 67.1781 148.116 98.8477C148.116 106.888 149.771 114.543 152.759 121.488C131.689 143.557 114.012 169.225 100.912 198.075Z" fill="#008DD2"/>
<path fill-rule="evenodd" clip-rule="evenodd" d="M205.458 156.191C237.128 156.191 262.801 130.517 262.801 98.8479C262.801 92.7888 261.861 86.9493 260.12 81.467C281.284 71.829 304.205 64.774 328.473 60.8234C395.255 49.9519 459.816 64.6119 510.631 97.1996C394.01 52.6964 257.306 110.58 203.387 228.235C157.636 328.07 185.998 439.281 265.496 500.909C189.901 471.985 132.48 408.503 119.323 327.679C108.453 260.907 129.987 195.778 173.054 146.164C182.273 152.489 193.433 156.191 205.458 156.191Z" fill="#009846"/>
<ellipse cx="205.459" cy="98.8476" rx="36.1306" ry="36.1306" transform="rotate(-0.650663 205.459 98.8476)" fill="#C42526"/>
</svg>
