<?xml version="1.0" encoding="UTF-8"?>
<svg width="98.585mm" height="31.897mm" version="1.1" viewBox="0 0 98.585 31.897" xmlns="http://www.w3.org/2000/svg" xmlns:cc="http://creativecommons.org/ns#" xmlns:dc="http://purl.org/dc/elements/1.1/" xmlns:rdf="http://www.w3.org/1999/02/22-rdf-syntax-ns#">
 <metadata>
  <rdf:RDF>
   <cc:Work rdf:about="">
    <dc:format>image/svg+xml</dc:format>
    <dc:type rdf:resource="http://purl.org/dc/dcmitype/StillImage"/>
    <dc:title/>
   </cc:Work>
  </rdf:RDF>
 </metadata>
 <g transform="translate(-29.947 -78.357)">
  <g transform="matrix(.63399 0 0 .64908 9.1176 75.054)" fill="#fff" stroke-width=".66725" aria-label="ЯКУТСКИЕ АЭРОКОСМИЧЕСКИЕ СИСТЕМЫ">
   <path d="m85.114 20.202h-1.2407v-3.0548h-0.80279q-0.30756 0-0.54215 0.17203-0.22937 0.17203-0.49523 0.7663l-0.8862 2.1165h-1.4492l1.0999-2.3771q0.13032-0.27629 0.39618-0.57864 0.27107-0.30756 0.62555-0.43789v-0.02085q-0.77152-0.1616-1.2042-0.67768-0.42746-0.52129-0.42746-1.2615 0-0.95918 0.71417-1.5378 0.71417-0.58385 1.8767-0.58385h2.3354zm-1.2407-4.0557v-2.4032h-1.0374q-0.63598 0-0.98524 0.30756-0.34927 0.30756-0.34927 0.87056 0 0.56821 0.37012 0.89662 0.37533 0.32842 1.0061 0.32842z"/>
   <path d="m92.621 20.202h-1.616l-2.6013-3.4197q-0.14596-0.19288-0.17724-0.26065h-0.02085v3.6803h-1.2407v-7.4754h1.2407v3.5135h0.02085q0.06256-0.11468 0.17724-0.25543l2.5074-3.2581h1.4857l-2.9349 3.5865z"/>
   <path d="m98.902 12.727-2.325 5.1764q-0.6464 1.4127-1.2511 1.9236-0.59949 0.50566-1.3137 0.50566-0.56821 0-0.94876-0.1616v-1.1833q0.45352 0.27107 0.87056 0.27107 0.37012 0 0.67768-0.2815 0.31278-0.2815 0.67247-0.99046l-2.497-5.2599h1.4127l1.543 3.5448q0.04692 0.10947 0.18245 0.54215h0.01043q0.01564-0.05213 0.19809-0.54215l1.4544-3.5448z"/>
   <path d="m104.76 13.78h-2.1477v6.4223h-1.2407v-6.4223h-2.1425v-1.053h5.5309z"/>
   <path d="m110.63 19.89q-0.8445 0.43789-2.1008 0.43789-1.6264 0-2.6065-1.0269-0.98003-1.0269-0.98003-2.6951 0-1.7933 1.0999-2.8984 1.1051-1.1051 2.7889-1.1051 1.0843 0 1.7985 0.30756v1.2303q-0.75588-0.44831-1.6681-0.44831-1.2146 0-1.9705 0.77673-0.75067 0.77673-0.75067 2.0748 0 1.2355 0.70375 1.9705 0.70375 0.72981 1.8506 0.72981 1.0582 0 1.835-0.50044z"/>
   <path d="m117.7 20.202h-1.616l-2.6012-3.4197q-0.14596-0.19288-0.17724-0.26065h-0.0208v3.6803h-1.2407v-7.4754h1.2407v3.5135h0.0208q0.0626-0.11468 0.17724-0.25543l2.5074-3.2581h1.4857l-2.9349 3.5865z"/>
   <path d="m124.9 20.202h-1.1938v-4.9784q0-0.67247 0.0521-0.94876h-0.0313q-0.0886 0.23458-0.21895 0.43267l-3.5865 5.4944h-1.3606v-7.4754h1.199v4.7542q0 0.81843-0.0417 1.0687h0.0208q0.10426-0.20852 0.27107-0.45874l3.4614-5.3641h1.4284z"/>
   <path d="m130.96 20.202h-4.1964v-7.4754h4.0296v1.053h-2.7889v2.1165h2.57v1.0478h-2.57v2.2103h2.9557z"/>
   <path d="m86.563 33.73h-1.3606l-0.67247-1.9027h-2.9401l-0.6464 1.9027h-1.3554l2.7993-7.4754h1.3971zm-2.3615-2.914-1.0374-2.9818q-0.04692-0.14596-0.09905-0.46916h-0.02085q-0.04692 0.29714-0.10426 0.46916l-1.0269 2.9818z"/>
   <path d="m87.168 33.444v-1.1312q0.79237 0.49523 1.9288 0.49523 1.0217 0 1.6681-0.59949 0.65162-0.6047 0.72981-1.6786h-3.1173v-1.0322h3.1173q-0.12511-1.0947-0.7663-1.6994-0.64119-0.60991-1.6681-0.60991-1.0426 0-1.8923 0.4431v-1.1886q0.81843-0.31278 1.9653-0.31278 1.6473 0 2.6742 1.0739 1.0269 1.0687 1.0269 2.8619 0 1.6786-0.99046 2.7368-0.98524 1.053-2.6013 1.053-1.2303 0-2.0748-0.41182z"/>
   <path d="m95.441 31.02v2.7107h-1.2355v-7.4754h2.2676q1.2876 0 1.9966 0.59949 0.70896 0.59949 0.70896 1.689 0 1.0895-0.74024 1.7828-0.74024 0.69332-2.0018 0.69332zm0-3.7429v2.7316h0.80279q0.79758 0 1.2146-0.37012 0.41704-0.37012 0.41704-1.0426 0-1.3189-1.5326-1.3189z"/>
   <path d="m103.48 33.855q-1.616 0-2.5908-1.0478-0.96961-1.0478-0.96961-2.7264 0-1.8037 0.99046-2.8775 0.99046-1.0739 2.6899-1.0739 1.5743 0 2.5335 1.0426 0.9644 1.0426 0.9644 2.7264 0 1.8297-0.98525 2.8932-0.98524 1.0634-2.6325 1.0634zm0.0573-6.6361q-1.027 0-1.6734 0.7663-0.6412 0.7663-0.6412 2.0174 0 1.2459 0.62556 2.007 0.62555 0.76109 1.6369 0.76109 1.0739 0 1.6942-0.7246 0.62034-0.7246 0.62034-2.0278 0-1.3397-0.60471-2.0695-0.59948-0.72981-1.6577-0.72981z"/>
   <path d="m114.12 33.73h-1.616l-2.6013-3.4197q-0.14596-0.19288-0.17724-0.26065h-0.0208v3.6803h-1.2407v-7.4754h1.2407v3.5135h0.0208q0.0626-0.11468 0.17724-0.25543l2.5074-3.2581h1.4857l-2.9349 3.5865z"/>
   <path d="m117.63 33.855q-1.616 0-2.5908-1.0478-0.96961-1.0478-0.96961-2.7264 0-1.8037 0.99046-2.8775 0.99046-1.0739 2.6899-1.0739 1.5743 0 2.5335 1.0426 0.9644 1.0426 0.9644 2.7264 0 1.8297-0.98525 2.8932-0.98524 1.0634-2.6325 1.0634zm0.0573-6.6361q-1.027 0-1.6734 0.7663-0.6412 0.7663-0.6412 2.0174 0 1.2459 0.62556 2.007 0.62555 0.76109 1.6369 0.76109 1.0739 0 1.6942-0.7246 0.62033-0.7246 0.62033-2.0278 0-1.3397-0.6047-2.0695-0.59948-0.72981-1.6577-0.72981z"/>
   <path d="m127.83 33.418q-0.8445 0.43789-2.1008 0.43789-1.6264 0-2.6065-1.0269-0.98003-1.0269-0.98003-2.6951 0-1.7933 1.0999-2.8984 1.1052-1.1051 2.7889-1.1051 1.0843 0 1.7985 0.30756v1.2303q-0.75588-0.44831-1.6681-0.44831-1.2146 0-1.9705 0.77673-0.75067 0.77673-0.75067 2.0748 0 1.2355 0.70375 1.9705 0.70375 0.72981 1.8506 0.72981 1.0582 0 1.835-0.50044z"/>
   <path d="m137.28 33.73h-1.2303v-4.8376q0-0.59428 0.073-1.4544h-0.0208q-0.11468 0.49002-0.2033 0.70375l-2.2311 5.5883h-0.85492l-2.2364-5.5466q-0.0938-0.24501-0.1981-0.74545h-0.0208q0.0417 0.44831 0.0417 1.4648v4.8272h-1.1468v-7.4754h1.7463l1.9653 4.9784q0.22416 0.57342 0.29193 0.85492h0.0261q0.19288-0.58906 0.31278-0.87577l2.0018-4.9575h1.6838z"/>
   <path d="m145.46 33.73h-1.1938v-4.9784q0-0.67247 0.0521-0.94876h-0.0313q-0.0886 0.23458-0.21895 0.43267l-3.5865 5.4944h-1.3606v-7.4754h1.199v4.7542q0 0.81843-0.0417 1.0687h0.0208q0.10426-0.20852 0.27107-0.45874l3.4614-5.3641h1.4284z"/>
   <path d="m152.78 33.73h-1.2407v-3.1851q-1.1729 0.6047-2.179 0.6047-1.0374 0-1.6056-0.52129-0.563-0.52651-0.563-1.4753v-2.8984h1.2355v2.6742q0 1.1625 1.1886 1.1625 0.8445 0 1.9236-0.54214v-3.2946h1.2407z"/>
   <path d="m158.88 33.73h-4.1964v-7.4754h4.0296v1.053h-2.7889v2.1165h2.57v1.0478h-2.57v2.2103h2.9557z"/>
   <path d="m165.42 33.418q-0.84449 0.43789-2.1008 0.43789-1.6264 0-2.6065-1.0269t-0.98003-2.6951q0-1.7933 1.0999-2.8984 1.1051-1.1051 2.7889-1.1051 1.0843 0 1.7985 0.30756v1.2303q-0.75587-0.44831-1.6681-0.44831-1.2146 0-1.9705 0.77673-0.75066 0.77673-0.75066 2.0748 0 1.2355 0.70374 1.9705 0.70375 0.72981 1.8506 0.72981 1.0582 0 1.835-0.50044z"/>
   <path d="m172.5 33.73h-1.616l-2.6013-3.4197q-0.14596-0.19288-0.17724-0.26065h-0.0208v3.6803h-1.2407v-7.4754h1.2407v3.5135h0.0208q0.0626-0.11468 0.17724-0.25543l2.5074-3.2581h1.4857l-2.9349 3.5865z"/>
   <path d="m179.7 33.73h-1.1938v-4.9784q0-0.67247 0.0521-0.94876h-0.0313q-0.0886 0.23458-0.21895 0.43267l-3.5865 5.4944h-1.3606v-7.4754h1.199v4.7542q0 0.81843-0.0417 1.0687h0.0208q0.10426-0.20852 0.27107-0.45874l3.4614-5.3641h1.4284z"/>
   <path d="m185.76 33.73h-4.1964v-7.4754h4.0296v1.053h-2.7889v2.1165h2.57v1.0478h-2.57v2.2103h2.9557z"/>
   <path d="m85.635 46.946q-0.8445 0.43789-2.1008 0.43789-1.6264 0-2.6065-1.0269-0.98003-1.0269-0.98003-2.6951 0-1.7933 1.0999-2.8984 1.1051-1.1051 2.7889-1.1051 1.0843 0 1.7985 0.30756v1.2303q-0.75588-0.44831-1.6681-0.44831-1.2146 0-1.9705 0.77673-0.75066 0.77673-0.75066 2.0748 0 1.2355 0.70375 1.9705 0.70375 0.72981 1.8506 0.72981 1.0582 0 1.835-0.50044z"/>
   <path d="m93.392 47.258h-1.1938v-4.9784q0-0.67247 0.05213-0.94876h-0.03128q-0.08862 0.23458-0.21894 0.43267l-3.5865 5.4944h-1.3606v-7.4754h1.199v4.7542q0 0.81843-0.0417 1.0687h0.02085q0.10426-0.20852 0.27107-0.45874l3.4614-5.3641h1.4283z"/>
   <path d="m100.46 46.946q-0.8445 0.43789-2.1008 0.43789-1.6264 0-2.6065-1.0269-0.98003-1.0269-0.98003-2.6951 0-1.7933 1.0999-2.8984 1.1051-1.1051 2.7889-1.1051 1.0843 0 1.7985 0.30756v1.2303q-0.75588-0.44831-1.6681-0.44831-1.2146 0-1.9705 0.77673-0.75066 0.77673-0.75066 2.0748 0 1.2355 0.70375 1.9705 0.70375 0.72981 1.8506 0.72981 1.0582 0 1.835-0.50044z"/>
   <path d="m106.67 40.836h-2.1477v6.4223h-1.2407v-6.4223h-2.1425v-1.053h5.5309z"/>
   <path d="m111.97 47.258h-4.1964v-7.4754h4.0296v1.053h-2.7889v2.1165h2.57v1.0478h-2.57v2.2103h2.9557z"/>
   <path d="m121.32 47.258h-1.2302v-4.8376q0-0.59428 0.073-1.4544h-0.0209q-0.11468 0.49002-0.2033 0.70375l-2.2311 5.5883h-0.85492l-2.2364-5.5466q-0.0938-0.24501-0.19809-0.74545h-0.0209q0.0417 0.44831 0.0417 1.4648v4.8272h-1.1468v-7.4754h1.7463l1.9653 4.9784q0.22415 0.57342 0.29192 0.85492h0.0261q0.19288-0.58906 0.31278-0.87577l2.0018-4.9575h1.6838z"/>
   <path d="m130.23 47.258h-1.2355v-7.4754h1.2355zm-7.0635 0v-7.4754h1.2355v3.0079h1.2772q1.1886 0 1.8506 0.55257 0.66204 0.55257 0.66204 1.5743 0 1.0843-0.69853 1.7151-0.69332 0.62555-1.8923 0.62555zm1.2355-3.4614v2.4501h1.0739q0.67768 0 1.0426-0.32842 0.37012-0.32842 0.37012-0.91748 0-1.2042-1.4127-1.2042z"/>
  </g>
 </g>
 <g>
  <circle cx="13.059" cy="16.474" r="12.031" fill="#f2f2f2"/>
  <ellipse transform="matrix(.86241 -.5062 .48442 .87484 0 0)" cx="3.6382" cy="22.261" rx="11.121" ry="10.856"/>
  <ellipse transform="matrix(.89185 -.45234 .3875 .92187 0 0)" cx="6.0848" cy="23.111" rx="10.425" ry="9.7502" fill="#f2f2f2"/>
  <ellipse transform="matrix(.59056 .80699 -.77439 .63271 0 0)" cx="25.943" cy="-1.4425" rx="7.6169" ry="9.7007" fill="#f2f2f2"/>
  <ellipse transform="matrix(.61359 .78963 -.74793 .66378 0 0)" cx="24.445" cy=".15235" rx="8.6534" ry="10.199"/>
  <g stroke-linecap="round">
   <path d="m25.338 11.045-11.726-8.9628" fill="#222" stroke="#f2f2f2" stroke-width="1.3105"/>
   <circle cx="23.31" cy="13.659" r="3.5755" fill="#fff" stroke="#fff" stroke-width=".74326"/>
   <g>
    <path d="m22.671 16.884-14.694-3.4649" fill="#f2f2f2" stroke="#f2f2f2" stroke-width="1.3105"/>
    <path d="m22.904 16.959-14.927-3.5399" stroke="#000" stroke-width=".47651"/>
    <path d="m25.338 11.045-11.726-8.9628" stroke="#000" stroke-width=".49043"/>
   </g>
  </g>
  <g fill="#222">
   <ellipse transform="matrix(.99912 -.041926 -.16271 .98667 0 0)" cx="26.934" cy="15.976" rx="2.3596" ry="2.4735"/>
   <ellipse transform="matrix(.93303 -.3598 .11575 .99328 0 0)" cx="22.988" cy="22.814" rx="2.7713" ry="2.4374"/>
   <ellipse transform="matrix(.99203 -.12597 0 1 0 0)" cx="23.642" cy="16.487" rx="3.0731" ry="3.2152"/>
   <path d="m22.462 13.183-15.4-6.9571" stroke="#f2f2f2" stroke-linecap="round" stroke-width="1.3105"/>
  </g>
  <g>
   <path d="m22.462 13.183-15.4-6.9571" stroke="#000" stroke-linecap="round" stroke-width=".50833px"/>
   <ellipse cx="23.315" cy="13.651" rx="3.5189" ry="3.5748"/>
   <ellipse transform="matrix(.79404 -.60786 .53799 .84295 0 0)" cx="12.127" cy="24.144" rx="3.1196" ry="2.5598"/>
  </g>
 </g>
</svg>
