<?xml version="1.0" encoding="UTF-8"?>
<svg width="31.585mm" height="31.897mm" version="1.1" viewBox="0 0 31.585 31.897" xmlns="http://www.w3.org/2000/svg" xmlns:cc="http://creativecommons.org/ns#" xmlns:dc="http://purl.org/dc/elements/1.1/" xmlns:rdf="http://www.w3.org/1999/02/22-rdf-syntax-ns#">
 <metadata>
  <rdf:RDF>
   <cc:Work rdf:about="">
    <dc:format>image/svg+xml</dc:format>
    <dc:type rdf:resource="http://purl.org/dc/dcmitype/StillImage"/>
    <dc:title/>
   </cc:Work>
  </rdf:RDF>
 </metadata>
 <g>
  <circle cx="14.894" cy="16.277" r="12.031" fill="#f2f2f2"/>
  <ellipse transform="matrix(.86241 -.5062 .48442 .87484 0 0)" cx="5.34" cy="23.02" rx="11.121" ry="10.856"/>
  <ellipse transform="matrix(.89185 -.45234 .3875 .92187 0 0)" cx="7.8577" cy="23.767" rx="10.425" ry="9.7502" fill="#f2f2f2"/>
  <ellipse transform="matrix(.59056 .80699 -.77439 .63271 0 0)" cx="26.953" cy="-3.0423" rx="7.6169" ry="9.7007" fill="#f2f2f2"/>
  <ellipse transform="matrix(.61359 .78963 -.74793 .66378 0 0)" cx="25.518" cy="-1.4212" rx="8.6534" ry="10.199"/>
  <g stroke-linecap="round">
   <path d="m27.173 10.848-11.726-8.9628" fill="#222" stroke="#f2f2f2" stroke-width="1.3105"/>
   <circle cx="25.145" cy="13.462" r="3.5755" fill="#fff" stroke="#fff" stroke-width=".74326"/>
   <g>
    <path d="m24.507 16.687-14.694-3.4649" fill="#f2f2f2" stroke="#f2f2f2" stroke-width="1.3105"/>
    <path d="m24.74 16.762-14.927-3.5399" stroke="#000" stroke-width=".47651"/>
    <path d="m27.173 10.848-11.726-8.9628" stroke="#000" stroke-width=".49043"/>
   </g>
  </g>
  <g fill="#222">
   <ellipse transform="matrix(.99912 -.041926 -.16271 .98667 0 0)" cx="28.751" cy="15.853" rx="2.3596" ry="2.4735"/>
   <ellipse transform="matrix(.93303 -.3598 .11575 .99328 0 0)" cx="24.894" cy="23.306" rx="2.7713" ry="2.4374"/>
   <ellipse transform="matrix(.99203 -.12597 0 1 0 0)" cx="25.492" cy="16.523" rx="3.0731" ry="3.2152"/>
   <path d="m24.298 12.986-15.4-6.9571" stroke="#f2f2f2" stroke-linecap="round" stroke-width="1.3105"/>
  </g>
  <g>
   <path d="m24.298 12.986-15.4-6.9571" stroke="#000" stroke-linecap="round" stroke-width=".50833px"/>
   <ellipse cx="25.15" cy="13.454" rx="3.5189" ry="3.5748"/>
   <ellipse transform="matrix(.79404 -.60786 .53799 .84295 0 0)" cx="13.786" cy="25.107" rx="3.1196" ry="2.5598"/>
  </g>
 </g>
</svg>
