<svg width="138" height="80" viewBox="0 0 138 80" fill="none" xmlns="http://www.w3.org/2000/svg">
<path d="M4.24219 72.1484V69.0078H1.125V67.6953H4.24219V64.5781H5.57031V67.6953H8.6875V69.0078H5.57031V72.1484H4.24219ZM10.3359 64.0469V62.6953H17.75V63.7891C17.0208 64.5651 16.2969 65.5964 15.5781 66.8828C14.8646 68.1693 14.3125 69.4922 13.9219 70.8516C13.6406 71.8099 13.4609 72.8594 13.3828 74H11.9375C11.9531 73.099 12.1302 72.0104 12.4688 70.7344C12.8073 69.4583 13.2917 68.2292 13.9219 67.0469C14.5573 65.8594 15.2318 64.8594 15.9453 64.0469H10.3359ZM26.6797 77.3672C25.9036 76.388 25.2474 75.2422 24.7109 73.9297C24.1745 72.6172 23.9062 71.2578 23.9062 69.8516C23.9062 68.612 24.1068 67.4245 24.5078 66.2891C24.9766 64.9714 25.7005 63.6589 26.6797 62.3516H27.6875C27.0573 63.4349 26.6406 64.2083 26.4375 64.6719C26.1198 65.3906 25.8698 66.1406 25.6875 66.9219C25.4635 67.8958 25.3516 68.875 25.3516 69.8594C25.3516 72.3646 26.1302 74.8672 27.6875 77.3672H26.6797ZM29.1406 71.3516L30.4922 71.2266C30.6068 71.862 30.8255 72.3229 31.1484 72.6094C31.4714 72.8958 31.8854 73.0391 32.3906 73.0391C32.8229 73.0391 33.2005 72.9401 33.5234 72.7422C33.8516 72.5443 34.1198 72.2812 34.3281 71.9531C34.5365 71.6198 34.7109 71.1719 34.8516 70.6094C34.9922 70.0469 35.0625 69.474 35.0625 68.8906C35.0625 68.8281 35.0599 68.7344 35.0547 68.6094C34.7734 69.0573 34.388 69.4219 33.8984 69.7031C33.4141 69.9792 32.888 70.1172 32.3203 70.1172C31.3724 70.1172 30.5703 69.7734 29.9141 69.0859C29.2578 68.3984 28.9297 67.4922 28.9297 66.3672C28.9297 65.2057 29.2708 64.2708 29.9531 63.5625C30.6406 62.8542 31.5 62.5 32.5312 62.5C33.276 62.5 33.9557 62.7005 34.5703 63.1016C35.1901 63.5026 35.6589 64.0755 35.9766 64.8203C36.2995 65.5599 36.4609 66.6328 36.4609 68.0391C36.4609 69.5026 36.3021 70.6693 35.9844 71.5391C35.6667 72.4036 35.1927 73.0625 34.5625 73.5156C33.9375 73.9688 33.2031 74.1953 32.3594 74.1953C31.4635 74.1953 30.7318 73.9479 30.1641 73.4531C29.5964 72.9531 29.2552 72.2526 29.1406 71.3516ZM34.8984 66.2969C34.8984 65.4896 34.6823 64.849 34.25 64.375C33.8229 63.901 33.3073 63.6641 32.7031 63.6641C32.0781 63.6641 31.5339 63.9193 31.0703 64.4297C30.6068 64.9401 30.375 65.6016 30.375 66.4141C30.375 67.1432 30.5938 67.737 31.0312 68.1953C31.474 68.6484 32.0182 68.875 32.6641 68.875C33.3151 68.875 33.849 68.6484 34.2656 68.1953C34.6875 67.737 34.8984 67.1042 34.8984 66.2969ZM43.1328 74H41.7266V65.0391C41.388 65.362 40.9427 65.6849 40.3906 66.0078C39.8438 66.3307 39.3516 66.5729 38.9141 66.7344V65.375C39.7005 65.0052 40.388 64.5573 40.9766 64.0312C41.5651 63.5052 41.9818 62.9948 42.2266 62.5H43.1328V74ZM51.25 74V71.2578H46.2812V69.9688L51.5078 62.5469H52.6562V69.9688H54.2031V71.2578H52.6562V74H51.25ZM51.25 69.9688V64.8047L47.6641 69.9688H51.25ZM56.9609 77.3672H55.9531C57.5104 74.8672 58.2891 72.3646 58.2891 69.8594C58.2891 68.8802 58.1771 67.9089 57.9531 66.9453C57.776 66.1641 57.5286 65.4141 57.2109 64.6953C57.0078 64.2266 56.5885 63.4453 55.9531 62.3516H56.9609C57.9401 63.6589 58.6641 64.9714 59.1328 66.2891C59.5339 67.4245 59.7344 68.612 59.7344 69.8516C59.7344 71.2578 59.4635 72.6172 58.9219 73.9297C58.3854 75.2422 57.7318 76.388 56.9609 77.3672ZM72.8203 72.6484V74H65.25C65.2396 73.6615 65.2943 73.3359 65.4141 73.0234C65.6068 72.5078 65.9141 72 66.3359 71.5C66.763 71 67.3776 70.4219 68.1797 69.7656C69.4245 68.7448 70.2656 67.9375 70.7031 67.3438C71.1406 66.7448 71.3594 66.1797 71.3594 65.6484C71.3594 65.0911 71.1589 64.6224 70.7578 64.2422C70.362 63.8568 69.8438 63.6641 69.2031 63.6641C68.526 63.6641 67.9844 63.8672 67.5781 64.2734C67.1719 64.6797 66.9661 65.2422 66.9609 65.9609L65.5156 65.8125C65.6146 64.7344 65.987 63.9141 66.6328 63.3516C67.2786 62.7839 68.1458 62.5 69.2344 62.5C70.3333 62.5 71.2031 62.8047 71.8438 63.4141C72.4844 64.0234 72.8047 64.7786 72.8047 65.6797C72.8047 66.138 72.7109 66.5885 72.5234 67.0312C72.3359 67.474 72.0234 67.9401 71.5859 68.4297C71.1536 68.9193 70.4323 69.5911 69.4219 70.4453C68.5781 71.1536 68.0365 71.6354 67.7969 71.8906C67.5573 72.1406 67.3594 72.3932 67.2031 72.6484H72.8203ZM81.7266 72.6484V74H74.1562C74.1458 73.6615 74.2005 73.3359 74.3203 73.0234C74.513 72.5078 74.8203 72 75.2422 71.5C75.6693 71 76.2839 70.4219 77.0859 69.7656C78.3307 68.7448 79.1719 67.9375 79.6094 67.3438C80.0469 66.7448 80.2656 66.1797 80.2656 65.6484C80.2656 65.0911 80.0651 64.6224 79.6641 64.2422C79.2682 63.8568 78.75 63.6641 78.1094 63.6641C77.4323 63.6641 76.8906 63.8672 76.4844 64.2734C76.0781 64.6797 75.8724 65.2422 75.8672 65.9609L74.4219 65.8125C74.5208 64.7344 74.8932 63.9141 75.5391 63.3516C76.1849 62.7839 77.0521 62.5 78.1406 62.5C79.2396 62.5 80.1094 62.8047 80.75 63.4141C81.3906 64.0234 81.7109 64.7786 81.7109 65.6797C81.7109 66.138 81.6172 66.5885 81.4297 67.0312C81.2422 67.474 80.9297 67.9401 80.4922 68.4297C80.0599 68.9193 79.3385 69.5911 78.3281 70.4453C77.4844 71.1536 76.9427 71.6354 76.7031 71.8906C76.4635 72.1406 76.2656 72.3932 76.1094 72.6484H81.7266ZM85.4062 67.7891C84.8229 67.5755 84.3906 67.2708 84.1094 66.875C83.8281 66.4792 83.6875 66.0052 83.6875 65.4531C83.6875 64.6198 83.987 63.9193 84.5859 63.3516C85.1849 62.7839 85.9818 62.5 86.9766 62.5C87.9766 62.5 88.7812 62.7917 89.3906 63.375C90 63.9531 90.3047 64.6589 90.3047 65.4922C90.3047 66.0234 90.1641 66.487 89.8828 66.8828C89.6068 67.2734 89.1849 67.5755 88.6172 67.7891C89.3203 68.0182 89.8542 68.388 90.2188 68.8984C90.5885 69.4089 90.7734 70.0182 90.7734 70.7266C90.7734 71.7057 90.4271 72.5286 89.7344 73.1953C89.0417 73.862 88.1302 74.1953 87 74.1953C85.8698 74.1953 84.9583 73.862 84.2656 73.1953C83.5729 72.5234 83.2266 71.6875 83.2266 70.6875C83.2266 69.9427 83.4141 69.3203 83.7891 68.8203C84.1693 68.3151 84.7083 67.9714 85.4062 67.7891ZM85.125 65.4062C85.125 65.9479 85.2995 66.3906 85.6484 66.7344C85.9974 67.0781 86.4505 67.25 87.0078 67.25C87.5495 67.25 87.9922 67.0807 88.3359 66.7422C88.6849 66.3984 88.8594 65.9792 88.8594 65.4844C88.8594 64.9688 88.6797 64.5365 88.3203 64.1875C87.9661 63.8333 87.5234 63.6562 86.9922 63.6562C86.4557 63.6562 86.0104 63.8281 85.6562 64.1719C85.3021 64.5156 85.125 64.9271 85.125 65.4062ZM84.6719 70.6953C84.6719 71.0964 84.7656 71.4844 84.9531 71.8594C85.1458 72.2344 85.4297 72.526 85.8047 72.7344C86.1797 72.9375 86.5833 73.0391 87.0156 73.0391C87.6875 73.0391 88.2422 72.8229 88.6797 72.3906C89.1172 71.9583 89.3359 71.4089 89.3359 70.7422C89.3359 70.0651 89.1094 69.5052 88.6562 69.0625C88.2083 68.6198 87.6458 68.3984 86.9688 68.3984C86.3073 68.3984 85.7578 68.6172 85.3203 69.0547C84.888 69.4922 84.6719 70.0391 84.6719 70.6953ZM91.9922 70.5625V69.1484H96.3125V70.5625H91.9922ZM97.4766 68.3516C97.4766 66.9974 97.6146 65.9089 97.8906 65.0859C98.1719 64.2578 98.5859 63.6198 99.1328 63.1719C99.6849 62.724 100.378 62.5 101.211 62.5C101.826 62.5 102.365 62.625 102.828 62.875C103.292 63.1198 103.674 63.4766 103.977 63.9453C104.279 64.4089 104.516 64.9766 104.688 65.6484C104.859 66.3151 104.945 67.2161 104.945 68.3516C104.945 69.6953 104.807 70.7812 104.531 71.6094C104.255 72.4323 103.841 73.0703 103.289 73.5234C102.742 73.9714 102.049 74.1953 101.211 74.1953C100.107 74.1953 99.2396 73.7995 98.6094 73.0078C97.8542 72.0547 97.4766 70.5026 97.4766 68.3516ZM98.9219 68.3516C98.9219 70.2318 99.1406 71.4844 99.5781 72.1094C100.021 72.7292 100.565 73.0391 101.211 73.0391C101.857 73.0391 102.398 72.7266 102.836 72.1016C103.279 71.4766 103.5 70.2266 103.5 68.3516C103.5 66.4661 103.279 65.2135 102.836 64.5938C102.398 63.974 101.852 63.6641 101.195 63.6641C100.549 63.6641 100.034 63.9375 99.6484 64.4844C99.1641 65.1823 98.9219 66.4714 98.9219 68.3516ZM113.68 65.3516L112.281 65.4609C112.156 64.9089 111.979 64.5078 111.75 64.2578C111.37 63.8568 110.901 63.6562 110.344 63.6562C109.896 63.6562 109.503 63.7812 109.164 64.0312C108.721 64.3542 108.372 64.8255 108.117 65.4453C107.862 66.0651 107.729 66.9479 107.719 68.0938C108.057 67.5781 108.471 67.1953 108.961 66.9453C109.451 66.6953 109.964 66.5703 110.5 66.5703C111.438 66.5703 112.234 66.9167 112.891 67.6094C113.552 68.2969 113.883 69.1875 113.883 70.2812C113.883 71 113.727 71.6693 113.414 72.2891C113.107 72.9036 112.682 73.375 112.141 73.7031C111.599 74.0312 110.984 74.1953 110.297 74.1953C109.125 74.1953 108.169 73.7656 107.43 72.9062C106.69 72.0417 106.32 70.6198 106.32 68.6406C106.32 66.4271 106.729 64.8177 107.547 63.8125C108.26 62.9375 109.221 62.5 110.43 62.5C111.331 62.5 112.068 62.7526 112.641 63.2578C113.219 63.763 113.565 64.4609 113.68 65.3516ZM107.938 70.2891C107.938 70.7734 108.039 71.237 108.242 71.6797C108.451 72.1224 108.74 72.4609 109.109 72.6953C109.479 72.9245 109.867 73.0391 110.273 73.0391C110.867 73.0391 111.378 72.7995 111.805 72.3203C112.232 71.8411 112.445 71.1901 112.445 70.3672C112.445 69.5755 112.234 68.9531 111.812 68.5C111.391 68.0417 110.859 67.8125 110.219 67.8125C109.583 67.8125 109.044 68.0417 108.602 68.5C108.159 68.9531 107.938 69.5495 107.938 70.2891ZM115.133 70.5625V69.1484H119.453V70.5625H115.133ZM120.625 70.9766L122.031 70.7891C122.193 71.5859 122.466 72.1615 122.852 72.5156C123.242 72.8646 123.716 73.0391 124.273 73.0391C124.935 73.0391 125.492 72.8099 125.945 72.3516C126.404 71.8932 126.633 71.3255 126.633 70.6484C126.633 70.0026 126.422 69.4714 126 69.0547C125.578 68.6328 125.042 68.4219 124.391 68.4219C124.125 68.4219 123.794 68.474 123.398 68.5781L123.555 67.3438C123.648 67.3542 123.724 67.3594 123.781 67.3594C124.38 67.3594 124.919 67.2031 125.398 66.8906C125.878 66.5781 126.117 66.0964 126.117 65.4453C126.117 64.9297 125.943 64.5026 125.594 64.1641C125.245 63.8255 124.794 63.6562 124.242 63.6562C123.695 63.6562 123.24 63.8281 122.875 64.1719C122.51 64.5156 122.276 65.0312 122.172 65.7188L120.766 65.4688C120.938 64.526 121.328 63.7969 121.938 63.2812C122.547 62.7604 123.305 62.5 124.211 62.5C124.836 62.5 125.411 62.6354 125.938 62.9062C126.464 63.1719 126.865 63.5365 127.141 64C127.422 64.4635 127.562 64.9557 127.562 65.4766C127.562 65.9714 127.43 66.4219 127.164 66.8281C126.898 67.2344 126.505 67.5573 125.984 67.7969C126.661 67.9531 127.188 68.2786 127.562 68.7734C127.938 69.263 128.125 69.8776 128.125 70.6172C128.125 71.6172 127.76 72.4661 127.031 73.1641C126.302 73.8568 125.38 74.2031 124.266 74.2031C123.26 74.2031 122.424 73.9036 121.758 73.3047C121.096 72.7057 120.719 71.9297 120.625 70.9766ZM129.734 71.3516L131.086 71.2266C131.201 71.862 131.419 72.3229 131.742 72.6094C132.065 72.8958 132.479 73.0391 132.984 73.0391C133.417 73.0391 133.794 72.9401 134.117 72.7422C134.445 72.5443 134.714 72.2812 134.922 71.9531C135.13 71.6198 135.305 71.1719 135.445 70.6094C135.586 70.0469 135.656 69.474 135.656 68.8906C135.656 68.8281 135.654 68.7344 135.648 68.6094C135.367 69.0573 134.982 69.4219 134.492 69.7031C134.008 69.9792 133.482 70.1172 132.914 70.1172C131.966 70.1172 131.164 69.7734 130.508 69.0859C129.852 68.3984 129.523 67.4922 129.523 66.3672C129.523 65.2057 129.865 64.2708 130.547 63.5625C131.234 62.8542 132.094 62.5 133.125 62.5C133.87 62.5 134.549 62.7005 135.164 63.1016C135.784 63.5026 136.253 64.0755 136.57 64.8203C136.893 65.5599 137.055 66.6328 137.055 68.0391C137.055 69.5026 136.896 70.6693 136.578 71.5391C136.26 72.4036 135.786 73.0625 135.156 73.5156C134.531 73.9688 133.797 74.1953 132.953 74.1953C132.057 74.1953 131.326 73.9479 130.758 73.4531C130.19 72.9531 129.849 72.2526 129.734 71.3516ZM135.492 66.2969C135.492 65.4896 135.276 64.849 134.844 64.375C134.417 63.901 133.901 63.6641 133.297 63.6641C132.672 63.6641 132.128 63.9193 131.664 64.4297C131.201 64.9401 130.969 65.6016 130.969 66.4141C130.969 67.1432 131.188 67.737 131.625 68.1953C132.068 68.6484 132.612 68.875 133.258 68.875C133.909 68.875 134.443 68.6484 134.859 68.1953C135.281 67.737 135.492 67.1042 135.492 66.2969Z" fill="white"/>
<path d="M78.198 4.08398H57.7813C55.5294 4.08398 53.698 5.91536 53.698 8.16732V40.834C53.698 43.0859 55.5294 44.9173 57.7813 44.9173H78.198C80.45 44.9173 82.2813 43.0859 82.2813 40.834V8.16732C82.2813 5.91536 80.45 4.08398 78.198 4.08398ZM57.7813 40.834V8.16732H78.198L78.2021 40.834H57.7813Z" fill="white"/>
<path d="M67.9897 38.7923C69.1172 38.7923 70.0313 37.8782 70.0313 36.7507C70.0313 35.6231 69.1172 34.709 67.9897 34.709C66.8621 34.709 65.948 35.6231 65.948 36.7507C65.948 37.8782 66.8621 38.7923 67.9897 38.7923Z" fill="white"/>
</svg>
